<svg xmlns="http://www.w3.org/2000/svg" width="1007" height="248" viewBox="0 0 1007 248" version="1.1"><path d="M 198.971 57.724 C 203.237 57.937, 206.808 58.612, 207.297 59.298 C 207.901 60.147, 208.033 60.060, 207.746 59 C 207.430 57.836, 205.568 57.483, 199.420 57.425 L 191.500 57.351 198.971 57.724 M 204.116 75.204 C 204.003 77.828, 203.799 77.919, 197.250 78.258 L 190.500 78.608 197.281 78.804 C 204.398 79.010, 205.712 78.213, 204.701 74.308 C 204.389 73.106, 204.193 73.406, 204.116 75.204 M 263.685 77.726 C 267.326 77.939, 270.040 78.584, 270.281 79.294 C 270.508 79.957, 270.645 79.825, 270.586 79 C 270.503 77.839, 269.011 77.485, 263.990 77.432 L 257.500 77.363 263.685 77.726 M 184.500 90.861 C 182.850 91.880, 180.657 93.662, 179.628 94.821 C 177.729 96.958, 177.481 97.953, 173.989 117.500 C 168.237 149.694, 166.885 158.219, 167.445 158.778 C 167.783 159.117, 170.859 159.456, 174.280 159.533 C 179.146 159.642, 181.424 159.155, 184.744 157.297 C 189.724 154.511, 191.259 151.828, 192.925 143 C 193.599 139.425, 194.562 134.475, 195.063 132 C 195.565 129.525, 196.861 122.325, 197.944 116 C 199.027 109.675, 200.382 102.076, 200.956 99.114 C 202.945 88.850, 203.037 88.999, 194.750 89.004 C 189.443 89.006, 186.696 89.504, 184.500 90.861 M 725 94.195 C 720.390 95.466, 717.078 99.552, 717.051 104 C 717.025 108.373, 717.504 109.077, 722.721 112.345 C 729.295 116.462, 725.931 120.669, 718.536 117.579 C 714.992 116.099, 714.903 116.119, 713.748 118.653 C 712.715 120.920, 712.856 121.465, 714.897 123.117 C 716.460 124.383, 718.813 125, 722.076 125 C 726.071 125, 727.551 124.455, 730.434 121.924 C 734.321 118.511, 735.863 113.482, 734.058 110.109 C 733.439 108.952, 731.120 107.081, 728.903 105.951 C 726.182 104.562, 724.984 103.344, 725.214 102.197 C 725.552 100.513, 727.387 100.259, 733 101.118 C 735.066 101.434, 735.552 101.051, 735.801 98.914 C 736.303 94.594, 731.370 92.439, 725 94.195 M 300.527 94.956 C 300.202 95.482, 298.850 102.108, 297.522 109.681 C 294.993 124.100, 295.146 125.329, 299.398 124.756 C 301.688 124.447, 302.697 122.720, 303.492 117.750 C 304.048 114.268, 304.334 114, 307.498 114 C 312.579 114, 315.935 112.047, 318.080 107.843 C 322.707 98.774, 318.682 94, 306.410 94 C 303.499 94, 300.852 94.430, 300.527 94.956 M 321.425 96.443 C 320.591 99.768, 321.573 101, 325.059 101 C 328.511 101, 328.431 100.317, 326.387 112.418 C 324.641 122.752, 324.902 125, 327.846 125 C 330.599 125, 331.636 123.267, 332.934 116.500 C 335.951 100.761, 335.848 101, 339.632 101 C 342.277 101, 343.256 100.484, 343.901 98.750 C 345.501 94.445, 344.472 94, 332.912 94 C 322.215 94, 322.028 94.040, 321.425 96.443 M 366.350 94.698 C 365.717 95.139, 364.480 99.325, 363.602 104 C 360.427 120.893, 360.210 122.929, 361.473 123.978 C 363.127 125.351, 375.300 124.413, 378.710 122.650 C 384.535 119.638, 388 113.137, 388 105.219 C 388 101.156, 387.522 99.917, 385.041 97.540 C 382.463 95.069, 381.146 94.653, 374.791 94.301 C 370.781 94.079, 366.982 94.258, 366.350 94.698 M 394.226 95.250 C 393.666 95.938, 392.187 102.503, 390.940 109.840 C 388.329 125.213, 388.231 124.968, 397 124.971 C 404.352 124.973, 406.707 124.229, 407.370 121.693 C 408.083 118.967, 406.530 118.034, 401.250 118.015 C 396.920 118, 396.233 117.163, 397.607 113.582 C 398.009 112.535, 399.462 112, 401.907 112 C 405.948 112, 408 110.586, 408 107.800 C 408 106.327, 407.162 106, 403.383 106 C 399.084 106, 398.808 105.845, 399.370 103.750 C 399.701 102.513, 399.979 101.162, 399.986 100.750 C 399.994 100.338, 402.445 100, 405.433 100 C 409.979 100, 410.968 99.675, 411.497 98.009 C 411.845 96.914, 411.848 95.564, 411.506 95.009 C 410.581 93.513, 395.470 93.724, 394.226 95.250 M 416.184 95.278 C 415.228 96.430, 411 118.463, 411 122.294 C 411 123.158, 411.837 124.131, 412.859 124.455 C 416.308 125.550, 417.843 124.028, 418.696 118.667 C 419.362 114.483, 419.891 113.500, 421.478 113.500 C 423.002 113.500, 423.632 114.498, 424.318 118 C 425.434 123.699, 426.615 125.119, 429.886 124.688 C 433.165 124.256, 433.715 121.103, 431.587 114.928 C 430.124 110.680, 430.151 110.449, 432.401 108.017 C 437.073 102.966, 436.392 97.029, 430.922 95.123 C 426.535 93.593, 417.503 93.689, 416.184 95.278 M 441.595 94.846 C 441.307 95.312, 440.131 101.049, 438.981 107.596 C 437.831 114.143, 436.668 120.260, 436.397 121.189 C 435.815 123.183, 439.102 125.282, 441.417 124.394 C 443.218 123.703, 444.255 120.159, 446.437 107.250 C 448.619 94.335, 448.584 94, 445.059 94 C 443.441 94, 441.883 94.381, 441.595 94.846 M 454.287 95.199 C 452.764 97.101, 452.128 99.598, 449.978 112.128 C 448.470 120.920, 448.314 123.579, 449.271 124.181 C 450.256 124.801, 453.680 124.419, 454.719 123.573 C 454.840 123.475, 455.483 120.043, 456.149 115.947 C 456.815 111.851, 457.647 108.154, 458 107.730 C 458.352 107.307, 459.901 110.583, 461.442 115.010 C 463.170 119.975, 465 123.465, 466.215 124.115 C 468.785 125.491, 472.724 124.466, 473.398 122.248 C 474.715 117.911, 478.034 96.530, 477.574 95.334 C 477.293 94.600, 475.932 94, 474.550 94 C 471.830 94, 471.865 93.923, 469.658 104.882 L 468.373 111.264 466.650 106.382 C 463.253 96.751, 461.748 94.524, 458.415 94.199 C 456.718 94.033, 454.861 94.483, 454.287 95.199 M 504.056 95.894 C 503.180 97.532, 501.296 107.195, 499.308 120.250 C 498.994 122.313, 499.133 124.033, 499.618 124.074 C 500.103 124.115, 501.524 124.339, 502.776 124.572 C 504.438 124.881, 505.280 124.390, 505.899 122.748 C 507.295 119.049, 511.083 95.944, 510.460 94.935 C 509.439 93.283, 505.107 93.932, 504.056 95.894 M 516.236 95.250 C 514.911 96.891, 510.646 122.619, 511.477 123.962 C 512.361 125.393, 515.537 125.266, 516.781 123.750 C 517.346 123.063, 518.438 118.695, 519.208 114.045 L 520.607 105.591 523.901 114.726 C 525.713 119.750, 527.863 124.117, 528.679 124.430 C 531.208 125.401, 533.703 125.062, 534.932 123.582 C 536.274 121.965, 541.192 96.120, 540.401 94.840 C 540.116 94.378, 538.772 94, 537.416 94 C 534.566 94, 533.432 96.260, 532.408 103.983 C 532.039 106.767, 531.424 109.238, 531.042 109.474 C 530.660 109.710, 529.319 106.888, 528.063 103.202 C 525.211 94.830, 524.529 94, 520.500 94 C 518.710 94, 516.791 94.563, 516.236 95.250 M 545.633 95.750 C 544.191 100.781, 541.946 114.182, 541.738 119 C 541.528 123.841, 541.740 124.531, 543.500 124.756 C 544.600 124.896, 546.063 124.644, 546.751 124.196 C 548.089 123.324, 553.304 96.301, 552.413 94.859 C 551.403 93.224, 546.160 93.914, 545.633 95.750 M 558.225 95.250 C 556.902 96.871, 552.727 119.038, 553.165 122.118 C 553.538 124.746, 556.363 125.774, 558.451 124.041 C 559.196 123.423, 560.368 118.998, 561.055 114.208 C 561.742 109.419, 562.479 105.950, 562.693 106.500 C 562.907 107.050, 564.526 111.325, 566.291 116 C 569.291 123.947, 569.701 124.520, 572.585 124.801 C 574.363 124.975, 576.171 124.499, 576.851 123.679 C 578.130 122.138, 583.093 95.982, 582.340 94.750 C 581.621 93.573, 577.527 93.873, 576.200 95.200 C 575.540 95.860, 575 97.413, 575 98.651 C 575 99.889, 574.492 103.272, 573.870 106.170 L 572.740 111.438 569.970 103.590 C 568.447 99.273, 566.593 95.357, 565.850 94.886 C 563.839 93.612, 559.388 93.824, 558.225 95.250 M 587.557 96.223 C 586.701 97.445, 586 99.719, 586 101.275 C 586 102.832, 585.295 107.206, 584.432 110.997 C 582.378 120.030, 582.773 124.397, 585.682 124.811 C 588.556 125.220, 589.508 123.236, 591.052 113.620 L 592.316 105.740 595.408 114.137 C 597.109 118.756, 598.864 123.089, 599.309 123.767 C 600.361 125.371, 605.459 125.359, 606.787 123.750 C 607.917 122.381, 612 101.260, 612 96.785 C 612 94.519, 611.557 94, 609.622 94 C 606.307 94, 605.503 95.430, 604.034 103.941 L 602.750 111.383 599.876 103.501 C 598.296 99.167, 596.440 95.262, 595.752 94.825 C 593.286 93.260, 589.136 93.967, 587.557 96.223 M 624.245 95.250 C 621.398 98.808, 609.890 122.272, 610.374 123.533 C 611.462 126.368, 615.668 125.227, 617.867 121.500 C 619.668 118.449, 620.434 118, 623.844 118 C 627.932 118, 629.537 119.145, 630.151 122.500 C 630.553 124.697, 634.533 125.648, 636.894 124.111 C 638.079 123.340, 638.037 121.806, 636.608 113.852 C 632.767 92.458, 633.353 94, 629.051 94 C 626.958 94, 624.795 94.563, 624.245 95.250 M 641.105 95.373 C 640.478 96.129, 640.170 97.366, 640.420 98.123 C 640.670 98.880, 641.129 104.087, 641.440 109.693 C 642.180 123.023, 642.944 125, 647.353 125 C 651.526 125, 652.131 124.297, 655.788 115.194 L 658.702 107.943 659.354 115.665 C 659.727 120.075, 660.542 123.726, 661.254 124.178 C 663.193 125.410, 667.640 125.138, 668.820 123.717 C 670.517 121.672, 680.023 100.133, 680.682 96.841 C 681.260 93.951, 681.168 93.863, 677.896 94.176 C 674.649 94.487, 674.370 94.854, 671.006 103.250 C 669.078 108.062, 667.163 112, 666.750 112 C 666.337 112, 665.955 109.188, 665.900 105.750 C 665.746 96.105, 665.046 94.500, 660.993 94.500 C 657.614 94.500, 657.528 94.613, 653.329 104.500 L 649.082 114.500 649.041 107.375 C 648.977 96.306, 648.280 94, 644.997 94 C 643.484 94, 641.732 94.618, 641.105 95.373 M 687.631 97.256 C 681.787 107.402, 675 121.219, 675 122.972 C 675 124.555, 675.653 125, 677.974 125 C 680.249 125, 681.304 124.314, 682.457 122.083 C 684.731 117.686, 693.106 116.592, 693.858 120.594 C 694.427 123.627, 696.035 125, 699.015 125 C 700.539 125, 702.001 124.438, 702.263 123.750 C 702.801 122.339, 698.608 96.792, 697.560 95.097 C 697.187 94.494, 695.221 94.003, 693.191 94.006 C 690.082 94.012, 689.205 94.524, 687.631 97.256 M 741.086 95.838 C 739.740 98.355, 735.776 121.974, 736.419 123.650 C 737.115 125.462, 754 125.606, 754 123.800 C 754 122.867, 754.267 122.867, 755.200 123.800 C 756.916 125.516, 763.153 125.281, 765.841 123.399 C 768.767 121.350, 769.834 118.478, 771.563 108 C 773.698 95.059, 773.582 94, 770.035 94 C 768.183 94, 766.702 94.688, 766.089 95.834 C 765.312 97.285, 762 114.922, 762 117.606 C 762 117.951, 760.864 118.016, 759.475 117.750 C 757.870 117.444, 756.645 117.813, 756.113 118.762 C 755.531 119.802, 755.064 119.913, 754.579 119.128 C 754.196 118.508, 751.884 118, 749.441 118 C 745.424 118, 745 117.772, 745 115.607 C 745 112.916, 746.641 112, 751.465 112 C 754.014 112, 754.896 111.504, 755.335 109.826 C 756.156 106.687, 755.368 106, 750.941 106 C 747.404 106, 747 105.744, 747 103.500 C 747 101.211, 747.372 101, 751.418 101 C 757.629 101, 759 100.257, 759 96.893 L 759 94 750.535 94 C 743.342 94, 741.923 94.276, 741.086 95.838 M 780.381 101.250 C 770.272 121.059, 769.204 123.505, 770.348 124.235 C 773.021 125.939, 775.840 124.937, 777.822 121.577 C 779.176 119.283, 780.445 118.268, 781.671 118.500 C 782.677 118.691, 784.737 118.881, 786.250 118.923 C 788.203 118.978, 789 119.522, 789 120.800 C 789 123.397, 790.984 125, 794.200 125 C 796.714 125, 797 124.655, 797 121.621 C 797 117.672, 793.425 96.497, 792.508 95.012 C 792.164 94.456, 790.127 94, 787.982 94 C 784.147 94, 784.019 94.122, 780.381 101.250 M 804.519 95.250 C 804.101 96.496, 800.645 113.758, 799.653 119.547 C 798.955 123.623, 800.134 125.229, 803.531 124.830 C 806.499 124.482, 807.227 123.137, 808.474 115.695 C 809.104 111.931, 809.155 111.894, 813.306 112.195 C 817.343 112.489, 817.484 112.612, 817.070 115.500 C 815.953 123.283, 816.287 124.479, 819.665 124.807 C 823.427 125.172, 823.253 125.580, 825.972 110 C 828.699 94.376, 828.677 94, 825.035 94 C 821.741 94, 820.552 95.539, 819.496 101.172 C 818.865 104.536, 818.517 104.836, 814.855 105.185 C 812.678 105.393, 810.755 105.422, 810.583 105.250 C 810.411 105.078, 810.655 102.876, 811.126 100.357 C 811.596 97.839, 811.734 95.378, 811.431 94.889 C 810.595 93.536, 804.995 93.828, 804.519 95.250 M 830.667 94.667 C 830.300 95.033, 830 96.608, 830 98.167 C 830 100.754, 830.313 101, 833.608 101 C 836.842 101, 837.161 101.234, 836.684 103.250 C 834.514 112.423, 833.012 123.412, 833.819 124.219 C 834.335 124.735, 836.020 125.009, 837.565 124.828 C 840.583 124.475, 840.501 124.705, 844.016 106.750 C 845.127 101.074, 845.187 101, 848.603 101 C 851.278 101, 852.254 100.489, 852.901 98.750 C 854.498 94.453, 853.463 94, 842.060 94 C 836.160 94, 831.033 94.300, 830.667 94.667 M 856.038 95.454 C 854.792 96.956, 849.990 122.916, 850.712 124.250 C 850.935 124.662, 854.901 125, 859.524 125 C 866.993 125, 868.053 124.770, 869.034 122.936 C 870.712 119.801, 868.610 118, 863.271 118 C 859.592 118, 858.895 117.716, 859.393 116.418 C 859.727 115.548, 860 114.146, 860 113.302 C 860 112.174, 860.715 111.904, 862.699 112.283 C 866.873 113.081, 870 111.471, 870 108.525 C 870 106.190, 869.653 106, 865.393 106 C 861.603 106, 860.894 105.720, 861.393 104.418 C 861.727 103.548, 862 102.447, 862 101.970 C 862 101.494, 864.316 100.969, 867.147 100.802 C 872.579 100.483, 874.860 98.683, 873.691 95.636 C 872.830 93.394, 857.876 93.240, 856.038 95.454 M 878.314 95.151 C 876.990 96.783, 874.319 109.432, 873.395 118.445 L 872.724 125 875.827 125 C 879.374 125, 880.429 123.545, 881.480 117.199 C 882.533 110.846, 884.925 112.363, 887.004 120.702 L 888.051 124.905 894.968 124.883 C 901.672 124.861, 901.942 124.763, 903.763 121.678 C 905.665 118.454, 905.831 118.408, 913.671 118.923 C 914.314 118.965, 915.138 120.350, 915.500 122 C 916.073 124.608, 916.598 125, 919.520 125 C 921.369 125, 923.117 124.620, 923.404 124.156 C 923.910 123.336, 920.840 104.022, 919.192 97.661 C 918.434 94.738, 918.053 94.500, 914.126 94.500 L 909.879 94.500 903.384 107 C 896.331 120.573, 895.032 122.489, 894.944 119.450 C 894.913 118.378, 894.348 115.925, 893.689 114 C 892.598 110.811, 892.695 110.322, 894.780 108.500 C 898.041 105.649, 898.725 100.117, 896.203 97.002 C 894.484 94.879, 893.222 94.500, 886.813 94.176 C 881.439 93.905, 879.109 94.172, 878.314 95.151 M 305.771 104.194 C 305.524 106.562, 305.440 108.653, 305.585 108.841 C 305.730 109.028, 307.120 108.572, 308.674 107.827 C 310.842 106.788, 311.500 105.778, 311.500 103.487 C 311.500 101.003, 311.056 100.449, 308.860 100.194 C 306.425 99.912, 306.186 100.222, 305.771 104.194 M 371.535 101.250 C 370.573 104.237, 369 113.334, 369 115.911 C 369 118.437, 369.280 118.670, 371.750 118.207 C 376.253 117.362, 378.918 115.017, 380.019 110.928 C 381.815 104.258, 379.484 100, 374.034 100 C 372.881 100, 371.756 100.563, 371.535 101.250 M 421.607 101.582 C 420.388 104.758, 420.955 107, 422.977 107 C 425.198 107, 428.521 102.651, 427.527 101.044 C 426.528 99.427, 422.286 99.813, 421.607 101.582 M 884 104 C 884 107.494, 885.844 107.935, 888.443 105.063 C 890.574 102.708, 889.732 101, 886.441 101 C 884.395 101, 884 101.486, 884 104 M 624.679 107.546 C 622.537 112.039, 622.530 112, 625.545 112 C 627.940 112, 628.051 111.779, 627.413 108.250 C 627.040 106.188, 626.650 104.393, 626.547 104.263 C 626.443 104.132, 625.603 105.610, 624.679 107.546 M 689.204 108.067 L 686.940 112 689.907 112 C 692.772 112, 692.854 111.871, 692.296 108.250 C 691.977 106.188, 691.661 104.418, 691.592 104.317 C 691.524 104.216, 690.449 105.904, 689.204 108.067 M 784.931 107.199 C 784.215 109.015, 783.451 110.838, 783.232 111.250 C 783.013 111.662, 783.968 112, 785.354 112 C 787.703 112, 787.835 111.745, 787.296 108.250 C 786.540 103.355, 786.459 103.319, 784.931 107.199 M 910.685 107.534 C 908.620 111.864, 908.596 111.544, 911 111.725 C 912.687 111.852, 913 111.259, 913 107.938 C 913 105.772, 912.858 104, 912.685 104 C 912.512 104, 911.612 105.590, 910.685 107.534 M 341 116.729 C 338.956 117.507, 338.034 119.068, 338.015 121.781 C 337.996 124.610, 340.351 125.617, 343.564 124.153 C 346.441 122.842, 347.033 117.611, 344.418 116.607 C 343.548 116.273, 342.761 116.036, 342.668 116.079 C 342.576 116.122, 341.825 116.415, 341 116.729 M 119.500 127.655 C 129.097 128.389, 140.005 128.440, 140.002 127.750 C 140.001 127.338, 134.488 127.079, 127.750 127.175 C 121.013 127.271, 117.300 127.487, 119.500 127.655 M 322.366 132.784 C 322.799 133.484, 321.690 133.989, 319.279 134.188 C 316.801 134.394, 315.481 135.012, 315.412 136 C 315.352 136.867, 315.485 136.972, 315.727 136.250 C 315.958 135.563, 317.662 135, 319.514 135 C 323.066 135, 324.835 133.634, 322.862 132.415 C 322.154 131.977, 321.958 132.123, 322.366 132.784 M 592.461 135.226 C 592.563 136.725, 592.163 138.152, 591.573 138.397 C 590.844 138.699, 590.838 138.867, 591.554 138.921 C 592.133 138.964, 594.158 137.313, 596.054 135.252 C 599.336 131.682, 599.349 131.640, 596.327 134.365 L 593.155 137.226 592.715 134.863 C 592.366 132.991, 592.314 133.066, 592.461 135.226 M 688.534 136.844 L 684.567 141.500 688.324 138.015 C 691.136 135.406, 692.887 134.567, 695.290 134.679 C 697.294 134.772, 697.654 134.646, 696.250 134.344 C 695.013 134.079, 694 133.442, 694 132.930 C 694 131.132, 692.462 132.233, 688.534 136.844 M 706.116 132.684 C 706.052 133.335, 704.763 134.023, 703.250 134.214 C 700.855 134.515, 700.990 134.628, 704.290 135.084 C 707.008 135.460, 708.423 135.168, 709.290 134.054 C 710.340 132.706, 710.280 132.672, 708.834 133.803 C 707.421 134.907, 707.096 134.831, 706.700 133.303 C 706.442 132.311, 706.180 132.033, 706.116 132.684 M 776.366 132.784 C 776.799 133.484, 775.687 133.989, 773.271 134.188 C 769.993 134.459, 769.459 134.859, 769.184 137.250 C 768.892 139.785, 769.126 139.988, 772.184 139.850 C 775.209 139.713, 775.259 139.664, 772.750 139.284 C 770.842 138.995, 770 138.275, 770 136.934 C 770 135.397, 770.706 135, 773.441 135 C 777.055 135, 778.850 133.643, 776.862 132.415 C 776.154 131.977, 775.958 132.123, 776.366 132.784 M 788.250 133.080 C 789.212 133.641, 790 135.054, 790 136.221 C 790 137.388, 789.212 139.278, 788.250 140.421 C 786.502 142.498, 786.502 142.498, 788.750 140.595 C 792.075 137.780, 791.254 131.923, 787.550 132.030 C 786.972 132.047, 787.288 132.519, 788.250 133.080 M 365.510 133.892 C 362.977 134.278, 361.481 135.048, 361.413 136 C 361.352 136.866, 361.485 136.972, 361.727 136.250 C 361.958 135.563, 363.662 135, 365.514 135 C 367.367 135, 369.160 134.550, 369.500 134 C 369.840 133.450, 369.979 133.064, 369.809 133.142 C 369.639 133.220, 367.704 133.557, 365.510 133.892 M 762.744 135.803 C 763.254 139.397, 761.160 141.992, 756.951 142.983 C 753.726 143.742, 753.683 143.802, 756.295 143.898 C 759.783 144.025, 764 140.034, 764 136.604 C 764 135.237, 763.631 133.890, 763.181 133.612 C 762.730 133.333, 762.534 134.319, 762.744 135.803 M 524 134.890 C 525.969 135.435, 526.629 136.422, 527.108 139.541 L 527.716 143.500 527.858 139.950 C 528.019 135.935, 526.559 133.953, 523.550 134.100 C 521.835 134.183, 521.908 134.312, 524 134.890 M 807.160 138.800 C 807.072 140.614, 806.313 143.427, 805.474 145.050 C 804.635 146.672, 804.174 148, 804.449 148 C 805.788 148, 808.070 141.498, 807.719 138.686 L 807.320 135.500 807.160 138.800 M 342.116 145.750 C 342.021 147.596, 342.524 148, 344.917 148 C 346.521 148, 348.062 148.461, 348.342 149.025 C 348.621 149.589, 348.737 149.476, 348.598 148.775 C 348.459 148.074, 347.171 147.360, 345.735 147.190 C 344.298 147.019, 342.923 146.119, 342.678 145.190 C 342.362 143.991, 342.198 144.154, 342.116 145.750 M 549.116 145.750 C 549.016 147.684, 549.500 148, 552.559 148 C 554.995 148, 555.893 148.364, 555.405 149.155 C 554.959 149.876, 555.131 150.037, 555.862 149.585 C 557.724 148.435, 556.143 147, 553.014 147 C 551.124 147, 549.991 146.404, 549.689 145.250 C 549.345 143.933, 549.203 144.057, 549.116 145.750 M 329.250 145.691 C 331.565 145.956, 333 146.649, 333 147.501 C 333 148.261, 333.444 149.156, 333.987 149.492 C 334.615 149.880, 334.666 149.266, 334.128 147.801 C 333.457 145.973, 332.483 145.475, 329.392 145.381 L 325.500 145.262 329.250 145.691 M 398.250 145.691 C 400.565 145.956, 402 146.649, 402 147.501 C 402 148.261, 402.444 149.156, 402.987 149.492 C 403.615 149.880, 403.666 149.266, 403.128 147.801 C 402.457 145.973, 401.483 145.475, 398.392 145.381 L 394.500 145.262 398.250 145.691 M 665.278 146.250 C 664.746 146.938, 663.995 148.175, 663.609 149 C 663.223 149.825, 663.658 149.488, 664.576 148.250 C 666.401 145.788, 671.484 145.133, 672.338 147.250 C 672.639 147.997, 672.874 147.795, 672.921 146.750 C 672.981 145.413, 672.203 145, 669.622 145 C 667.765 145, 665.810 145.563, 665.278 146.250 M 843.278 146.250 C 841.339 148.757, 840.883 150.431, 842.769 148.115 C 844.278 146.263, 845.414 145.834, 847.856 146.192 C 849.585 146.446, 851 146.282, 851 145.827 C 851 144.507, 844.344 144.872, 843.278 146.250 M 116.250 147.739 C 119.412 147.937, 124.587 147.937, 127.750 147.739 C 130.912 147.541, 128.325 147.378, 122 147.378 C 115.675 147.378, 113.087 147.541, 116.250 147.739 M 154 168.833 C 154 169.679, 148.024 170.063, 132.250 170.229 L 110.500 170.458 131.930 170.749 C 151.900 171.021, 156.834 170.501, 154.683 168.350 C 154.308 167.974, 154 168.192, 154 168.833 M 164.999 169.750 C 164.999 170.162, 167.362 170.370, 170.249 170.211 C 179.052 169.727, 179.885 169.280, 172.250 169.136 C 168.262 169.061, 165 169.338, 164.999 169.750 M 165.750 190.732 C 168.088 190.943, 171.912 190.943, 174.250 190.732 C 176.588 190.522, 174.675 190.349, 170 190.349 C 165.325 190.349, 163.412 190.522, 165.750 190.732" stroke="none" fill="#eaa629" fill-rule="evenodd"/><path d="M 181.942 60.287 C 163.537 66.562, 148.786 82.192, 144.906 99.529 L 143.682 105 132.977 105 C 114.247 105, 105.376 107.940, 95.990 117.257 C 82.028 131.117, 80.284 150.379, 91.936 162.031 C 99.223 169.318, 102.538 170, 130.662 170 L 153.962 170 154.475 167.750 C 154.757 166.512, 157.647 150.404, 160.896 131.953 C 164.145 113.503, 167.466 96.820, 168.277 94.881 C 172.463 84.860, 181.647 79.152, 194.971 78.289 L 203.725 77.722 205.362 68.553 C 206.263 63.511, 207 59.073, 207 58.692 C 207 58.312, 202.838 58.012, 197.750 58.026 C 190.849 58.045, 186.834 58.619, 181.942 60.287 M 248 79.476 C 232.018 84.084, 219.253 94.549, 212.052 108.948 C 209.081 114.889, 207.985 119.043, 205.443 134 C 202.682 150.252, 201.150 154.616, 196.330 159.977 C 190.344 166.636, 185.024 169.012, 174.268 169.832 L 165.507 170.500 163.945 180 L 162.382 189.500 170.875 189.792 C 197.182 190.695, 220.310 171.071, 225.435 143.500 C 230.578 115.823, 230.787 115.037, 234.249 110.216 C 236.112 107.623, 239.819 104.151, 242.489 102.501 C 246.753 99.864, 248.503 99.439, 256.901 99 L 266.461 98.500 267.659 93.088 C 268.318 90.111, 269.156 85.499, 269.522 82.838 L 270.188 78 261.344 78.089 C 256.480 78.139, 250.475 78.763, 248 79.476 M 113.415 128.421 C 106.120 131.598, 103.527 140.618, 108.485 145.575 C 110.905 147.996, 111.299 148.053, 123.705 147.780 L 136.442 147.500 137.671 140 C 138.347 135.875, 139.137 131.262, 139.425 129.750 L 139.950 127 128.225 127.039 C 120.691 127.064, 115.397 127.558, 113.415 128.421 M 298.673 133.695 C 297.357 138.480, 295.827 149.160, 296.378 149.712 C 297.344 150.678, 298.170 149.401, 298.906 145.807 C 299.913 140.880, 302.605 140.948, 304.100 145.938 C 304.769 148.172, 305.695 150, 306.158 150 C 307.193 150, 307.140 146.211, 306.069 143.500 C 305.526 142.128, 305.867 140.745, 307.157 139.093 C 308.799 136.988, 308.861 136.422, 307.654 134.593 C 305.781 131.756, 299.383 131.116, 298.673 133.695 M 313.514 133.250 C 312.844 135.233, 311 146.182, 311 148.184 C 311 149.670, 311.818 150, 315.500 150 C 317.975 150, 320 149.550, 320 149 C 320 148.450, 318.373 148, 316.383 148 C 313.121 148, 312.826 147.780, 313.370 145.750 C 313.701 144.512, 313.979 143.162, 313.986 142.750 C 313.994 142.338, 315.350 142, 317 142 C 318.650 142, 320 141.550, 320 141 C 320 140.450, 318.845 140, 317.434 140 C 315.224 140, 314.911 139.618, 315.184 137.250 C 315.459 134.859, 315.993 134.459, 319.271 134.188 C 321.345 134.017, 322.781 133.454, 322.462 132.938 C 321.591 131.529, 314.007 131.793, 313.514 133.250 M 330.676 132.750 C 328.455 136.520, 322 148.892, 322 149.378 C 322 151.003, 324.169 149.723, 325.182 147.500 C 326.068 145.554, 327.067 145, 329.685 145 C 332.375 145, 333.245 145.513, 334.023 147.560 C 335.895 152.485, 336.692 149.001, 335.344 141.783 C 334.596 137.777, 333.777 133.938, 333.523 133.250 C 333.014 131.869, 331.366 131.579, 330.676 132.750 M 342.700 132.733 C 341.641 134.372, 339.151 148.818, 339.814 149.481 C 340.771 150.437, 348 150.013, 348 149 C 348 148.450, 346.650 148, 345 148 C 341.613 148, 341.601 147.957, 343.075 141.088 C 344.254 135.587, 344.034 130.670, 342.700 132.733 M 359.569 133.286 C 358.523 137.017, 357 145.486, 357 147.576 C 357 149.782, 357.404 150, 361.500 150 C 363.975 150, 366 149.550, 366 149 C 366 148.450, 364.377 148, 362.393 148 C 359.515 148, 358.909 147.680, 359.393 146.418 C 359.727 145.548, 360 144.198, 360 143.418 C 360 142.515, 361.069 142, 362.941 142 C 364.559 142, 366.160 141.550, 366.500 141 C 366.862 140.415, 365.822 140, 363.993 140 C 361.173 140, 360.898 139.731, 361.184 137.250 C 361.458 134.862, 361.994 134.459, 365.250 134.190 C 367.313 134.019, 369 133.514, 369 133.066 C 369 131.721, 359.949 131.931, 359.569 133.286 M 372.698 133.781 C 370.063 136.693, 370.575 139.729, 374 141.500 C 379.260 144.220, 376.820 148.778, 370.811 147.458 C 367.864 146.811, 367.674 146.902, 368.892 148.370 C 370.856 150.737, 374.723 150.368, 377.545 147.545 C 381.120 143.971, 381.041 143.704, 375.032 139.114 C 372.869 137.462, 372.737 137.022, 373.958 135.550 C 374.892 134.425, 376.150 134.072, 377.774 134.479 C 379.496 134.912, 380.073 134.714, 379.771 133.794 C 379.086 131.710, 374.579 131.703, 372.698 133.781 M 382.500 133 C 382.149 133.567, 382.990 134, 384.441 134 C 387.393 134, 387.522 134.811, 385.931 143.414 C 384.862 149.198, 385.333 151.697, 386.988 149.019 C 387.472 148.236, 388.155 145.324, 388.506 142.548 C 389.479 134.859, 389.887 134, 392.567 134 C 393.905 134, 395 133.550, 395 133 C 395 132.446, 392.353 132, 389.059 132 C 385.791 132, 382.840 132.450, 382.500 133 M 395.615 140.446 C 393.077 145.140, 391 149.210, 391 149.490 C 391 151.024, 393.205 149.644, 394.182 147.500 C 395.068 145.554, 396.067 145, 398.685 145 C 401.409 145, 402.242 145.507, 403.062 147.663 C 403.654 149.221, 404.434 149.947, 404.942 149.413 C 406.078 148.218, 402.854 132.781, 401.365 132.287 C 400.741 132.080, 398.153 135.751, 395.615 140.446 M 407.500 133 C 407.160 133.550, 407.782 134, 408.882 134 C 411.827 134, 412.027 134.970, 410.539 142.064 C 409.767 145.743, 409.563 148.893, 410.062 149.417 C 411.149 150.560, 411.622 149.308, 413.237 141 C 414.401 135.007, 414.716 134.475, 417.267 134.182 C 418.789 134.007, 419.775 133.445, 419.458 132.932 C 418.683 131.678, 408.280 131.737, 407.500 133 M 422.535 133.250 C 421.632 136.053, 420 145.260, 420 147.549 C 420 149.787, 420.391 150, 424.500 150 C 426.975 150, 429 149.550, 429 149 C 429 148.450, 427.377 148, 425.393 148 C 422.515 148, 421.909 147.680, 422.393 146.418 C 422.727 145.548, 423 144.198, 423 143.418 C 423 142.515, 424.069 142, 425.941 142 C 427.559 142, 429.160 141.550, 429.500 141 C 429.862 140.415, 428.822 140, 426.993 140 C 424.173 140, 423.898 139.731, 424.184 137.250 C 424.459 134.859, 424.993 134.459, 428.271 134.188 C 430.345 134.017, 431.781 133.454, 431.462 132.938 C 430.590 131.527, 423.004 131.792, 422.535 133.250 M 448.514 133.250 C 447.844 135.233, 446 146.182, 446 148.184 C 446 151.757, 455.700 149.633, 458.434 145.460 C 460.834 141.798, 460.484 135.452, 457.777 133.557 C 455.116 131.692, 449.109 131.493, 448.514 133.250 M 465.510 132.983 C 464.579 134.490, 462.225 148.892, 462.814 149.481 C 463.751 150.417, 470.867 150.023, 471.500 149 C 471.869 148.403, 470.638 148, 468.442 148 C 465.119 148, 464.824 147.785, 465.370 145.750 C 465.701 144.512, 465.979 143.162, 465.986 142.750 C 465.994 142.338, 467.350 142, 469 142 C 470.650 142, 472 141.550, 472 141 C 472 140.450, 470.902 140, 469.559 140 C 466.549 140, 465.989 139.151, 467.085 136.250 C 467.750 134.492, 468.721 134, 471.527 134 C 473.666 134, 474.868 133.596, 474.500 133 C 473.702 131.709, 466.307 131.695, 465.510 132.983 M 477.128 135 C 477.239 141.017, 479.402 149.500, 480.826 149.500 C 481.555 149.500, 484.181 145.787, 486.661 141.250 C 489.645 135.790, 490.707 133, 489.800 133 C 489.046 133, 486.909 136.037, 485.051 139.750 C 481.951 145.945, 481.613 146.294, 480.937 144 C 480.531 142.625, 480.155 140.124, 480.100 138.441 C 480.045 136.759, 479.339 134.509, 478.532 133.441 C 477.153 131.618, 477.068 131.712, 477.128 135 M 493.527 134.250 C 489.928 150.098, 489.916 150, 495.500 150 C 497.975 150, 500 149.550, 500 149 C 500 148.450, 498.650 148, 497 148 C 494.333 148, 494 147.667, 494 145 C 494 142.347, 494.340 142, 496.941 142 C 498.559 142, 500.160 141.550, 500.500 141 C 500.861 140.417, 499.844 140, 498.059 140 C 494.965 140, 494.342 138.878, 495.607 135.582 C 495.998 134.562, 497.441 134, 499.666 134 C 501.713 134, 502.866 133.593, 502.500 133 C 502.160 132.450, 500.117 132, 497.960 132 C 494.711 132, 493.950 132.386, 493.527 134.250 M 506.637 133.649 C 506.094 135.439, 504.023 147.728, 504.008 149.250 C 503.996 150.380, 511.789 150.151, 512.500 149 C 512.861 148.417, 511.844 148, 510.059 148 C 506.566 148, 506.418 147.344, 508.010 138.947 C 508.618 135.744, 508.657 133.257, 508.109 132.709 C 507.562 132.162, 506.975 132.536, 506.637 133.649 M 520.110 133.396 C 518.796 134.124, 517.124 135.796, 516.396 137.110 C 514.571 140.402, 514.666 146.523, 516.571 148.429 C 520.335 152.192, 527.888 148.898, 529.972 142.585 C 532.594 134.642, 527.099 129.522, 520.110 133.396 M 535.495 133.478 C 534.385 137.733, 533 145.589, 533 147.635 C 533 150.894, 534.666 149.797, 535.503 145.989 C 535.988 143.776, 536.730 143, 538.357 143 C 544.037 143, 547.606 135.465, 543.075 133.040 C 540.734 131.787, 535.863 132.068, 535.495 133.478 M 549.462 133.250 C 548.418 135.997, 546.283 148.950, 546.791 149.458 C 547.745 150.412, 554.859 150.038, 555.500 149 C 555.868 148.405, 554.677 148, 552.559 148 C 550.153 148, 549 147.540, 549 146.582 C 549 143.448, 550.298 142, 553.107 142 C 554.698 142, 556 141.550, 556 141 C 556 140.450, 554.845 140, 553.434 140 C 551.224 140, 550.911 139.618, 551.184 137.250 C 551.459 134.859, 551.993 134.459, 555.271 134.188 C 557.345 134.017, 558.781 133.454, 558.462 132.938 C 557.593 131.533, 550.015 131.795, 549.462 133.250 M 562.623 133.750 C 561.916 136.169, 560 147.076, 560 148.684 C 560 151.750, 562.029 149.668, 562.616 146 C 563.543 140.202, 566.870 140.923, 568.381 147.250 C 568.742 148.762, 569.480 150, 570.019 150 C 571.242 150, 571.261 148.397, 570.085 144.296 C 569.416 141.963, 569.521 140.812, 570.477 140.019 C 572.858 138.043, 572.953 135.080, 570.686 133.493 C 567.728 131.421, 563.262 131.563, 562.623 133.750 M 590.513 132.979 C 589.539 134.556, 587.103 148.357, 587.644 149.233 C 588.491 150.604, 589.999 148.988, 590.015 146.691 C 590.024 145.486, 590.430 143.869, 590.918 143.099 C 591.589 142.039, 592.321 142.709, 593.923 145.849 C 595.088 148.132, 596.482 150, 597.020 150 C 598.526 150, 598.201 148.455, 595.862 144.491 L 593.724 140.867 597.453 137.049 C 599.503 134.948, 600.762 132.971, 600.249 132.654 C 599.736 132.337, 597.807 133.635, 595.962 135.539 C 594.117 137.443, 592.336 139, 592.005 139 C 591.673 139, 591.585 137.425, 591.810 135.500 C 592.213 132.054, 591.700 131.058, 590.513 132.979 M 604.659 134.054 C 599.143 138.393, 599.020 148.214, 604.465 149.580 C 610.628 151.127, 615.989 146.165, 615.996 138.905 C 616.003 132.445, 609.980 129.868, 604.659 134.054 M 621.450 133.081 C 620.276 134.981, 617.990 148.174, 618.649 149.242 C 619.637 150.839, 620.869 147.901, 621.572 142.270 C 621.933 139.384, 622.581 137.241, 623.012 137.507 C 623.443 137.774, 624.616 140.271, 625.617 143.055 C 627.340 147.848, 629.497 150.836, 630.506 149.828 C 630.950 149.383, 633.999 134.373, 634 132.628 C 634 132.148, 633.375 132.274, 632.611 132.907 C 631.848 133.541, 630.911 136.559, 630.529 139.614 C 630.147 142.669, 629.546 144.879, 629.192 144.525 C 628.838 144.171, 627.603 141.347, 626.446 138.248 C 624.312 132.528, 622.774 130.938, 621.450 133.081 M 636.500 133 C 636.147 133.572, 637.032 134, 638.569 134 C 641.168 134, 641.234 134.139, 640.588 138.250 C 640.221 140.588, 639.656 144.188, 639.332 146.250 C 638.958 148.636, 639.138 150, 639.827 150 C 640.422 150, 641.188 148.313, 641.529 146.250 C 643.514 134.244, 643.406 134.517, 646.293 134.182 C 647.801 134.007, 648.775 133.445, 648.458 132.932 C 647.683 131.678, 637.280 131.737, 636.500 133 M 651.477 133.250 C 650.163 136.815, 648.413 149.137, 649.155 149.596 C 650.050 150.149, 650.429 149.345, 651.436 144.750 C 652.049 141.950, 654.702 140.972, 655.502 143.250 C 657.470 148.856, 658.111 150.049, 658.893 149.566 C 659.417 149.243, 659.371 147.359, 658.784 145.046 C 657.959 141.798, 658.069 140.788, 659.389 139.469 C 661.816 137.041, 661.384 134.096, 658.435 132.975 C 654.918 131.638, 652.028 131.752, 651.477 133.250 M 669.823 133.726 C 667.264 136.693, 661.168 148.986, 662.001 149.501 C 662.430 149.766, 663.516 148.862, 664.414 147.491 C 666.542 144.243, 673 143.829, 673 146.941 C 673 149.130, 674.562 150.517, 675.436 149.104 C 676.119 147.999, 673.274 133.874, 672.141 132.741 C 671.707 132.307, 670.664 132.751, 669.823 133.726 M 686.853 136.033 L 682.703 140.396 683.417 136.593 C 683.963 133.679, 683.825 132.892, 682.825 133.225 C 681.754 133.582, 679.312 143.656, 679.061 148.750 C 678.923 151.575, 680.958 149.739, 681.568 146.489 C 682.439 141.844, 683.499 141.377, 684.992 144.980 C 685.665 146.604, 686.853 148.463, 687.632 149.109 C 690.243 151.276, 690.267 149.131, 687.681 144.719 L 685.119 140.347 688.760 136.707 C 690.762 134.705, 692.086 132.753, 691.702 132.369 C 691.318 131.985, 689.136 133.634, 686.853 136.033 M 694 133.057 C 694 133.575, 694.963 134, 696.139 134 C 698.107 134, 698.231 134.380, 697.690 138.750 C 697.367 141.363, 696.786 145.023, 696.399 146.884 C 695.849 149.534, 695.997 150.168, 697.084 149.805 C 697.847 149.551, 698.799 147.353, 699.199 144.921 C 701.025 133.821, 700.954 134, 703.545 134 C 704.895 134, 706 133.614, 706 133.142 C 706 132.669, 703.300 132.245, 700 132.198 C 696.700 132.151, 694 132.538, 694 133.057 M 709.659 134.054 C 706.408 136.611, 704.385 143.354, 705.882 146.641 C 708.069 151.441, 715.873 150.896, 719.027 145.723 C 724.565 136.641, 717.522 127.869, 709.659 134.054 M 726.136 133.750 C 725.623 134.713, 724.831 138.200, 724.377 141.500 C 723.324 149.163, 723.321 148.993, 724.500 149.039 C 725.050 149.061, 725.725 147.598, 726 145.789 C 726.685 141.283, 729.901 141.250, 731.411 145.735 C 732.010 147.514, 732.950 148.956, 733.500 148.940 C 734.598 148.906, 734.281 145.412, 732.955 142.923 C 732.380 141.844, 732.728 140.821, 734.057 139.683 C 738 136.307, 735.501 132, 729.601 132 C 728.209 132, 726.650 132.787, 726.136 133.750 M 753.514 133.250 C 752.844 135.233, 751 146.182, 751 148.184 C 751 151.353, 752.751 150.142, 753.434 146.500 C 753.973 143.629, 754.532 143, 756.545 143 C 761.812 143, 765.304 135.303, 761.066 133.035 C 758.403 131.610, 754.027 131.735, 753.514 133.250 M 767.514 133.250 C 766.844 135.233, 765 146.182, 765 148.184 C 765 149.670, 765.818 150, 769.500 150 C 771.975 150, 774 149.550, 774 149 C 774 148.450, 772.377 148, 770.393 148 C 767.515 148, 766.909 147.680, 767.393 146.418 C 767.727 145.548, 768 144.198, 768 143.418 C 768 142.515, 769.069 142, 770.941 142 C 772.559 142, 774.160 141.550, 774.500 141 C 774.862 140.415, 773.822 140, 771.993 140 C 769.173 140, 768.898 139.731, 769.184 137.250 C 769.459 134.859, 769.993 134.459, 773.271 134.188 C 775.345 134.017, 776.781 133.454, 776.462 132.938 C 775.591 131.529, 768.007 131.793, 767.514 133.250 M 781.245 133.250 C 780.365 134.351, 778 145.707, 778 148.832 C 778 151.510, 779.868 149.720, 780.687 146.257 C 781.952 140.904, 784.585 140.746, 785.983 145.937 C 786.585 148.172, 787.510 150, 788.039 150 C 789.243 150, 789.256 148.380, 788.085 144.296 C 787.395 141.892, 787.519 140.814, 788.585 139.930 C 790.626 138.235, 790.326 134.245, 788.066 133.035 C 785.452 131.636, 782.460 131.731, 781.245 133.250 M 795.577 133.121 C 794.440 136.532, 792.326 148.993, 792.803 149.470 C 794.974 151.641, 803.665 148.548, 805.530 144.941 C 807.415 141.297, 807.420 135.593, 805.539 134.033 C 803.234 132.120, 796.127 131.469, 795.577 133.121 M 811.583 140.296 C 809.062 144.920, 807 148.995, 807 149.351 C 807 151.015, 809.166 149.731, 810.204 147.451 C 811.181 145.308, 811.935 144.949, 814.933 145.201 C 817.759 145.438, 818.566 145.967, 818.820 147.750 C 819.125 149.901, 820.073 150.594, 821.186 149.481 C 822.087 148.579, 818.499 132.666, 817.305 132.268 C 816.678 132.059, 814.103 135.672, 811.583 140.296 M 829.304 133.956 C 827.131 135.281, 825.718 137.211, 824.886 139.988 C 823.790 143.644, 823.873 144.354, 825.680 146.785 C 827.788 149.620, 833.185 150.882, 835.822 149.157 C 837.244 148.228, 839.127 141.460, 838.217 140.550 C 837.249 139.582, 832 139.962, 832 141 C 832 141.550, 832.900 142, 834 142 C 836.338 142, 836.578 143.827, 834.597 146.536 C 833.432 148.129, 832.712 148.286, 830.347 147.459 C 828.004 146.640, 827.445 145.805, 827.190 142.746 C 826.948 139.828, 827.439 138.470, 829.477 136.432 C 831.729 134.180, 832.630 133.920, 836.286 134.464 C 840.212 135.048, 840.367 134.985, 838.559 133.546 C 835.964 131.479, 833.163 131.603, 829.304 133.956 M 843.753 140.504 C 841.252 145.182, 839.560 149.228, 839.993 149.496 C 840.427 149.764, 841.516 148.862, 842.414 147.491 C 844.542 144.243, 851 143.829, 851 146.941 C 851 149.095, 852.557 150.525, 853.407 149.151 C 854.015 148.166, 851.677 134.905, 850.583 133.134 C 849.254 130.984, 848.286 132.028, 843.753 140.504 M 859.673 133.695 C 858.357 138.480, 856.827 149.160, 857.378 149.712 C 858.464 150.797, 858.990 149.484, 860.308 142.405 L 861.594 135.500 863.831 141.500 C 865.062 144.800, 866.264 148.063, 866.503 148.750 C 867.198 150.750, 868.974 150.197, 869.930 147.685 C 870.724 145.596, 872.391 134.774, 872.113 133.514 C 872.051 133.231, 871.663 132.981, 871.250 132.957 C 870.837 132.933, 870.008 135.746, 869.407 139.207 L 868.314 145.500 866.649 141.500 C 862.909 132.514, 860.683 130.024, 859.673 133.695 M 879.301 133.958 C 874.777 136.716, 873.010 143.193, 875.769 146.904 C 877.088 148.678, 878.815 149.596, 881.225 149.803 C 885.677 150.185, 888 148, 888 143.429 C 888 140.286, 887.750 140, 885 140 C 883.350 140, 882 140.450, 882 141 C 882 141.550, 882.900 142, 884 142 C 886.229 142, 886.509 143.181, 884.965 146.066 C 883.692 148.444, 880.707 148.564, 878.469 146.326 C 876.234 144.092, 877.179 138.121, 880.151 135.693 C 881.830 134.321, 883.344 134.031, 886.431 134.488 C 890.229 135.051, 890.371 134.988, 888.559 133.546 C 885.963 131.479, 883.163 131.603, 879.301 133.958 M 897.697 134.188 C 895.143 138.318, 890 148.333, 890 149.178 C 890 150.917, 891.731 149.886, 892.818 147.500 C 893.717 145.526, 894.694 145, 897.460 145 C 900.361 145, 901.069 145.429, 901.589 147.500 C 902.370 150.612, 904.022 150.788, 903.938 147.750 C 903.807 142.944, 901.366 132.622, 900.276 132.259 C 899.644 132.048, 898.484 132.916, 897.697 134.188 M 910.195 133.685 C 908.907 136.158, 906.754 149.087, 907.505 149.838 C 908.380 150.713, 909.967 147.858, 909.985 145.375 C 910.009 142.019, 911.182 137, 911.942 137 C 912.323 137, 913.400 139.426, 914.334 142.392 C 916.109 148.023, 918.322 150.907, 919.457 149.070 C 920.453 147.458, 922.907 133.659, 922.356 132.767 C 921.246 130.972, 920.225 133.295, 919.567 139.113 C 918.800 145.887, 918.130 145.830, 915.501 138.764 C 913.306 132.865, 911.515 131.150, 910.195 133.685 M 300.607 135.582 C 299.413 138.693, 299.942 140.148, 302.148 139.820 C 305.152 139.373, 306.991 136.256, 305 134.987 C 302.802 133.586, 301.295 133.790, 300.607 135.582 M 450.552 135.144 C 449.765 137.428, 448.155 147.478, 448.517 147.845 C 448.704 148.035, 450.247 147.885, 451.946 147.512 C 456.359 146.543, 459.495 139.899, 457.225 136.329 C 456.021 134.437, 451.096 133.562, 450.552 135.144 M 520.780 135.064 C 518.375 136.465, 516.610 143.403, 517.998 145.996 C 520.590 150.840, 528 146.076, 528 139.565 C 528 134.602, 524.894 132.665, 520.780 135.064 M 537.667 134.667 C 537.300 135.033, 537 136.608, 537 138.167 C 537 140.316, 537.474 141, 538.965 141 C 541.618 141, 543.559 137.378, 541.947 135.436 C 540.680 133.910, 538.767 133.566, 537.667 134.667 M 564.607 135.582 C 563.413 138.693, 563.942 140.148, 566.148 139.820 C 569.152 139.373, 570.991 136.256, 569 134.987 C 566.802 133.586, 565.295 133.790, 564.607 135.582 M 605.455 136.455 C 602.633 139.276, 602.106 145.013, 604.487 146.989 C 606.978 149.056, 610.963 147.334, 612.566 143.497 C 614.400 139.107, 614.372 137.515, 612.429 135.571 C 610.224 133.366, 608.299 133.610, 605.455 136.455 M 653.100 136.176 C 652.053 138.907, 653.044 140.331, 655.644 139.830 C 656.855 139.597, 657.500 138.614, 657.500 137 C 657.500 133.652, 654.297 133.052, 653.100 136.176 M 710.455 136.455 C 707.633 139.276, 707.106 145.013, 709.487 146.989 C 711.978 149.056, 715.963 147.334, 717.566 143.497 C 719.400 139.107, 719.372 137.515, 717.429 135.571 C 715.224 133.366, 713.299 133.610, 710.455 136.455 M 728.003 136.492 C 726.622 140.124, 726.648 140.173, 729.750 139.816 C 731.928 139.566, 732.500 138.983, 732.500 137.014 C 732.500 133.460, 729.297 133.089, 728.003 136.492 M 755.667 134.667 C 755.300 135.033, 755 136.608, 755 138.167 C 755 140.316, 755.474 141, 756.965 141 C 759.618 141, 761.559 137.378, 759.947 135.436 C 758.680 133.910, 756.767 133.566, 755.667 134.667 M 782.607 135.582 C 781.413 138.693, 781.942 140.148, 784.148 139.820 C 787.152 139.373, 788.991 136.256, 787 134.987 C 784.802 133.586, 783.295 133.790, 782.607 135.582 M 797.535 135.250 C 796.531 138.367, 795.004 147.337, 795.408 147.741 C 795.655 147.988, 797.247 147.885, 798.946 147.512 C 802.170 146.804, 805 142.875, 805 139.106 C 805 135.692, 798.477 132.323, 797.535 135.250 M 329.682 138.700 C 327.507 142.839, 327.537 143, 330.500 143 C 333.083 143, 333.312 142.279, 332.083 138 L 331.364 135.500 329.682 138.700 M 398.682 138.700 C 396.507 142.839, 396.537 143, 399.500 143 C 402.083 143, 402.312 142.279, 401.083 138 L 400.364 135.500 398.682 138.700 M 668.928 138.781 C 668.178 140.277, 667.400 141.838, 667.199 142.250 C 666.998 142.662, 667.996 143, 669.417 143 C 671.609 143, 672 142.555, 672 140.059 C 672 136.069, 670.585 135.480, 668.928 138.781 M 814.682 138.700 C 812.507 142.839, 812.537 143, 815.500 143 C 818.083 143, 818.312 142.279, 817.083 138 L 816.364 135.500 814.682 138.700 M 846.956 138.722 C 846.190 140.250, 845.400 141.838, 845.199 142.250 C 844.998 142.662, 845.996 143, 847.417 143 C 849.434 143, 849.997 142.507, 849.985 140.750 C 849.957 136.660, 848.482 135.673, 846.956 138.722 M 897.251 139.057 L 895.060 142.500 897.621 142.825 C 900.910 143.243, 900.980 143.138, 900.144 139.050 L 899.441 135.613 897.251 139.057 M 432.260 149.685 C 430.610 153.240, 431.471 153.858, 433.942 150.892 C 436.263 148.105, 436.493 146.997, 434.750 147.008 C 434.063 147.012, 432.942 148.217, 432.260 149.685 M 573.797 150.006 C 572.860 151.653, 572.452 153, 572.892 153 C 574.056 153, 577 149.540, 577 148.171 C 577 146.098, 575.546 146.931, 573.797 150.006 M 737.260 149.685 C 735.593 153.275, 736.679 154.066, 739.046 150.985 C 741.285 148.072, 741.475 146.997, 739.750 147.008 C 739.063 147.012, 737.942 148.217, 737.260 149.685" stroke="none" fill="#315ba2" fill-rule="evenodd"/></svg>