<svg xmlns="http://www.w3.org/2000/svg" width="336" height="266" viewBox="0 0 336 266" version="1.1"><path d="M 140.414 44.466 C 138.167 46.351, 134.643 50.054, 132.583 52.696 L 128.837 57.500 132.892 53 C 135.122 50.525, 138.872 46.826, 141.224 44.780 C 146.598 40.105, 145.925 39.844, 140.414 44.466 M 313.762 55.707 C 315.006 55.946, 316.806 55.937, 317.762 55.687 C 318.718 55.437, 317.700 55.241, 315.500 55.252 C 313.300 55.263, 312.518 55.468, 313.762 55.707 M 325.762 55.707 C 327.006 55.946, 328.806 55.937, 329.762 55.687 C 330.718 55.437, 329.700 55.241, 327.500 55.252 C 325.300 55.263, 324.518 55.468, 325.762 55.707 M 258.500 74.588 L 255.500 77.165 258.750 75.015 C 260.538 73.832, 262 72.669, 262 72.432 C 262 71.683, 261.577 71.944, 258.500 74.588 M 186.799 76.950 C 181.606 77.959, 175.673 82.161, 172.094 87.363 C 169.024 91.825, 166.917 101.176, 161.472 134.500 C 160.664 139.450, 159.531 145.975, 158.956 149 C 158.380 152.025, 157.277 158.325, 156.504 163 C 155.731 167.675, 154.179 176.675, 153.056 183 C 149.944 200.522, 149.144 199, 161.465 199 C 174.380 199, 179.921 197.330, 185.830 191.657 C 191.536 186.179, 192.847 183.465, 194.506 173.687 C 195.270 169.184, 196.386 162.800, 196.986 159.500 C 197.586 156.200, 198.706 149.900, 199.474 145.500 C 204.743 115.334, 206.267 106.773, 208.821 93 C 210.403 84.475, 211.513 77.162, 211.289 76.750 C 210.783 75.817, 191.828 75.972, 186.799 76.950 M 237.798 95.250 C 234.893 99.120, 233.740 101, 234.271 101 C 234.486 101, 236.115 98.975, 237.893 96.500 C 241.580 91.366, 241.500 90.317, 237.798 95.250 M 306.250 92.742 C 309.962 92.934, 316.038 92.934, 319.750 92.742 C 323.462 92.549, 320.425 92.392, 313 92.392 C 305.575 92.392, 302.538 92.549, 306.250 92.742 M 221.571 129.571 C 221.204 131.037, 221.096 132.429, 221.331 132.665 C 221.567 132.900, 222.061 131.894, 222.429 130.429 C 222.796 128.963, 222.904 127.571, 222.669 127.335 C 222.433 127.100, 221.939 128.106, 221.571 129.571 M 259.571 132.571 C 259.204 134.037, 259.096 135.429, 259.331 135.665 C 259.567 135.900, 260.061 134.894, 260.429 133.429 C 260.796 131.963, 260.904 130.571, 260.669 130.335 C 260.433 130.100, 259.939 131.106, 259.571 132.571 M 167 143 C 167 144.333, 167.667 145, 169 145 C 170.333 145, 171 144.333, 171 143 C 171 141.667, 170.333 141, 169 141 C 167.667 141, 167 141.667, 167 143 M 72.803 142.746 C 78.470 142.925, 87.470 142.924, 92.803 142.745 C 98.136 142.565, 93.500 142.419, 82.500 142.420 C 71.500 142.421, 67.136 142.568, 72.803 142.746 M 17 204.500 C 18.866 206.425, 20.617 208, 20.892 208 C 21.167 208, 19.866 206.425, 18 204.500 C 16.134 202.575, 14.383 201, 14.108 201 C 13.833 201, 15.134 202.575, 17 204.500 M 224.971 225.750 L 218.500 232.500 225.250 226.029 C 228.963 222.470, 232 219.432, 232 219.279 C 232 218.543, 230.982 219.480, 224.971 225.750 M 144.556 232.556 C 144.179 234.562, 144.071 236.404, 144.315 236.649 C 144.560 236.893, 145.068 235.451, 145.444 233.444 C 145.821 231.438, 145.929 229.596, 145.685 229.351 C 145.440 229.107, 144.932 230.549, 144.556 232.556 M 142.556 243.556 C 142.179 245.562, 142.071 247.404, 142.315 247.649 C 142.560 247.893, 143.068 246.451, 143.444 244.444 C 143.821 242.438, 143.929 240.596, 143.685 240.351 C 143.440 240.107, 142.932 241.549, 142.556 243.556 M 141.015 252.250 C 141.001 253.848, 142.280 253.981, 155.750 253.781 L 170.500 253.561 156.541 253.251 C 146.941 253.038, 142.339 252.560, 141.806 251.720 C 141.268 250.874, 141.026 251.036, 141.015 252.250" stroke="none" fill="#f1a91c" fill-rule="evenodd"/><path d="M 185.991 21.967 C 157.760 27.854, 131.495 48.226, 118.240 74.517 C 115.049 80.845, 110.322 95.408, 109.805 100.500 L 109.500 103.500 86.500 104.037 C 61.950 104.611, 56.556 105.415, 46.313 110.030 C 30.939 116.957, 18.675 128.677, 11.104 143.679 C 6.222 153.353, 4.588 160.397, 4.650 171.500 C 4.701 180.483, 5.043 182.303, 8.009 189.401 C 13.955 203.624, 25.959 213.331, 42 216.889 C 45.961 217.768, 58.681 218.024, 87.448 217.804 L 127.396 217.500 132.117 191 C 134.714 176.425, 137.349 161.575, 137.973 158 C 148.417 98.136, 150.011 90.475, 153.496 83.368 C 157.845 74.497, 166.643 65.951, 176.520 61.003 C 183.430 57.542, 183.650 57.503, 198.500 57.172 C 206.750 56.988, 213.810 56.537, 214.189 56.169 C 214.567 55.801, 215.631 51, 216.553 45.500 C 217.474 40, 218.773 32.234, 219.438 28.241 C 220.104 24.249, 220.428 20.761, 220.158 20.491 C 218.908 19.241, 193.877 20.322, 185.991 21.967 M 300.477 56.988 C 271.192 61.293, 242.164 83.373, 228.946 111.397 C 223.841 122.222, 222.019 129.323, 217.505 156 C 216.621 161.225, 215.497 167.525, 215.009 170 C 214.520 172.475, 213.830 176.281, 213.476 178.458 C 210.838 194.654, 193.579 212.465, 177.201 215.891 C 174.286 216.501, 166.532 217, 159.970 217 C 146.321 217, 147.988 215.576, 145.914 229 C 145.277 233.125, 144.416 238.300, 144.002 240.500 C 143.588 242.700, 142.910 246.412, 142.496 248.750 L 141.744 253 156.744 253 C 169.327 253, 173.284 252.609, 181.307 250.574 C 197.055 246.579, 210.708 238.957, 223.166 227.205 C 240.738 210.628, 249.610 193.127, 253.940 166.500 C 254.477 163.200, 255.407 157.800, 256.008 154.500 C 256.608 151.200, 257.729 144.675, 258.498 140 C 261.177 123.721, 265.087 114.957, 273.362 106.681 C 283.968 96.076, 295.147 92, 313.631 92 L 325.547 92 328.355 75.750 C 329.900 66.813, 331.382 58.712, 331.649 57.750 C 332.095 56.142, 331.052 56.010, 318.817 56.125 C 311.493 56.193, 303.239 56.582, 300.477 56.988 M 58.902 143.447 C 49.771 145.965, 43.407 153.373, 42.406 162.648 C 41.762 168.617, 43.991 173.452, 48.898 176.730 C 52.171 178.917, 53.097 179, 74.080 179 C 98.482 179, 96.197 179.779, 97.545 171 C 97.925 168.525, 98.410 165.600, 98.623 164.500 C 99.694 158.957, 101.199 150.033, 101.698 146.250 L 102.260 142 82.880 142.089 C 70.585 142.146, 61.819 142.642, 58.902 143.447" stroke="none" fill="#2a499c" fill-rule="evenodd"/></svg>