<?xml version="1.0" encoding="UTF-8"?>
<!DOCTYPE svg PUBLIC "-//W3C//DTD SVG 1.1//EN" "http://www.w3.org/Graphics/SVG/1.1/DTD/svg11.dtd">
<!-- Creator: CorelDRAW X7 -->
<svg xmlns="http://www.w3.org/2000/svg" xml:space="preserve" width="176.389mm" height="176.389mm" version="1.1" style="shape-rendering:geometricPrecision; text-rendering:geometricPrecision; image-rendering:optimizeQuality; fill-rule:evenodd; clip-rule:evenodd"
viewBox="0 0 17639 17639"
 xmlns:xlink="http://www.w3.org/1999/xlink">
 <defs>
  <style type="text/css">
   <![CDATA[
    .fil1 {fill:#FEFEFE}
    .fil37 {fill:#F08519}
    .fil36 {fill:#2F318B}
    .fil7 {fill:#FEFCFD;fill-rule:nonzero}
    .fil31 {fill:#F2A18D;fill-rule:nonzero}
    .fil34 {fill:#F08519;fill-rule:nonzero}
    .fil0 {fill:#F08519;fill-rule:nonzero}
    .fil32 {fill:#ED7A76;fill-rule:nonzero}
    .fil33 {fill:#E75151;fill-rule:nonzero}
    .fil29 {fill:#E5EFF9;fill-rule:nonzero}
    .fil27 {fill:#DFECF8;fill-rule:nonzero}
    .fil23 {fill:#D8D6D6;fill-rule:nonzero}
    .fil16 {fill:#D6E7F6;fill-rule:nonzero}
    .fil26 {fill:#CFE1F3;fill-rule:nonzero}
    .fil30 {fill:#CFD0D8;fill-rule:nonzero}
    .fil14 {fill:#CBCBC9;fill-rule:nonzero}
    .fil2 {fill:#C3DEF4;fill-rule:nonzero}
    .fil22 {fill:#BBCAD4;fill-rule:nonzero}
    .fil8 {fill:#A6CBEA;fill-rule:nonzero}
    .fil13 {fill:#9FB6C5;fill-rule:nonzero}
    .fil28 {fill:#9EA8B9;fill-rule:nonzero}
    .fil9 {fill:#84B8E4;fill-rule:nonzero}
    .fil21 {fill:#77859F;fill-rule:nonzero}
    .fil4 {fill:#58A1D8;fill-rule:nonzero}
    .fil25 {fill:#6E7990;fill-rule:nonzero}
    .fil17 {fill:#67718C;fill-rule:nonzero}
    .fil19 {fill:#2DABE2;fill-rule:nonzero}
    .fil20 {fill:#4093D0;fill-rule:nonzero}
    .fil24 {fill:#339BC7;fill-rule:nonzero}
    .fil18 {fill:#5C5C6F;fill-rule:nonzero}
    .fil5 {fill:#128DCE;fill-rule:nonzero}
    .fil11 {fill:#465177;fill-rule:nonzero}
    .fil6 {fill:#246CB4;fill-rule:nonzero}
    .fil12 {fill:#0E78B8;fill-rule:nonzero}
    .fil15 {fill:#3F4765;fill-rule:nonzero}
    .fil3 {fill:#3B3E61;fill-rule:nonzero}
    .fil10 {fill:#2E2E41;fill-rule:nonzero}
    .fil35 {fill:#2F318B;fill-rule:nonzero}
   ]]>
  </style>
 </defs>
 <g id="Layer_x0020_1">
  <metadata id="CorelCorpID_0Corel-Layer"/>
  <g id="_2435800881632">
   <path class="fil0" d="M2762 17597l14877 42 0 -17639 -13086 0c910,2239 -6153,17584 -1791,17597z"/>
   <rect class="fil1" y="4607" width="2678" height="292" rx="116" ry="108"/>
   <g>
    <path class="fil2" d="M15929 14363c0,181 -2490,328 -5560,328 -3070,0 -5559,-147 -5559,-328 0,-181 2489,-328 5559,-328 3070,0 5560,147 5560,328z"/>
    <path class="fil2" d="M14958 8435c0,28 -12,53 -32,72 -20,18 -47,30 -77,30l-2343 0c-60,0 -110,-46 -110,-102 0,-28 13,-54 33,-72 19,-19 47,-30 77,-30l111 0c43,-95 144,-161 262,-161 79,0 151,30 202,78 69,-109 197,-182 342,-182 41,0 79,6 116,16 76,-134 226,-225 400,-225 209,0 384,132 437,310 39,-18 82,-28 128,-28 130,0 240,81 274,192l71 0c60,0 109,46 109,102z"/>
    <path class="fil2" d="M6874 6656c0,24 -11,46 -28,62 -17,16 -41,26 -66,26l-2020 0c-52,0 -94,-40 -94,-88 0,-24 10,-46 27,-62 17,-16 41,-26 67,-26l95 0c38,-82 125,-139 227,-139 68,0 129,26 174,68 60,-94 169,-157 295,-157 34,0 68,5 99,13 66,-115 196,-193 345,-193 180,0 331,113 377,267 33,-15 71,-24 110,-24 112,0 207,69 237,165l61 0c51,0 94,40 94,88z"/>
    <path class="fil2" d="M10632 6184c0,25 -11,47 -28,63 -18,17 -42,26 -68,26l-2046 0c-53,0 -96,-40 -96,-89 0,-24 11,-46 28,-63 18,-16 41,-26 68,-26l96 0c39,-83 127,-140 230,-140 69,0 131,26 176,68 61,-95 172,-159 299,-159 35,0 69,5 101,14 66,-117 198,-196 350,-196 182,0 335,114 381,270 34,-15 72,-24 112,-24 114,0 209,70 240,167l61 0c53,0 96,40 96,89z"/>
    <path class="fil3" d="M15050 7857c-52,0 -95,40 -95,89 0,49 43,88 95,88 52,0 95,-39 95,-88 0,-49 -43,-89 -95,-89zm0 -40c76,0 138,58 138,129 0,71 -62,129 -138,129 -76,0 -138,-58 -138,-129 0,-71 62,-129 138,-129z"/>
    <path class="fil4" d="M14909 7203c-52,0 -95,40 -95,89 0,48 43,88 95,88 53,0 95,-40 95,-88 0,-49 -42,-89 -95,-89zm0 -40c76,0 138,58 138,129 0,70 -62,128 -138,128 -76,0 -138,-58 -138,-128 0,-71 62,-129 138,-129z"/>
    <path class="fil5" d="M14489 6981c0,12 10,21 22,21l95 0c12,0 22,-9 22,-21 0,-11 -10,-20 -22,-20l-95 0c-12,0 -22,9 -22,20z"/>
    <path class="fil5" d="M14322 6981c0,12 9,21 21,21l96 0c12,0 22,-9 22,-21 0,-11 -10,-20 -22,-20l-96 0c-12,0 -21,9 -21,20z"/>
    <path class="fil5" d="M14453 6856l0 80c0,12 10,21 22,21 12,0 21,-9 21,-21l0 -80c0,-11 -9,-20 -21,-20 -12,0 -22,9 -22,20z"/>
    <path class="fil5" d="M14453 7026l0 80c0,12 10,21 22,21 12,0 21,-9 21,-21l0 -80c0,-11 -9,-20 -21,-20 -12,0 -22,9 -22,20z"/>
    <path class="fil6" d="M14645 7669c0,11 9,20 21,20l96 0c12,0 22,-9 22,-20 0,-11 -10,-20 -22,-20l-96 0c-12,0 -21,9 -21,20z"/>
    <path class="fil6" d="M14477 7669c0,11 10,20 22,20l96 0c12,0 21,-9 21,-20 0,-11 -9,-20 -21,-20l-96 0c-12,0 -22,9 -22,20z"/>
    <path class="fil6" d="M14609 7544l0 80c0,11 10,20 22,20 12,0 21,-9 21,-20l0 -80c0,-11 -9,-20 -21,-20 -12,0 -22,9 -22,20z"/>
    <path class="fil6" d="M14609 7714l0 80c0,11 10,20 22,20 12,0 21,-9 21,-20l0 -80c0,-11 -9,-20 -21,-20 -12,0 -22,9 -22,20z"/>
    <path class="fil5" d="M5726 8441c0,-49 -42,-89 -94,-89 -53,0 -95,40 -95,89 0,48 42,88 95,88 52,0 94,-40 94,-88zm44 0c0,71 -62,128 -138,128 -77,0 -139,-57 -139,-128 0,-71 62,-129 139,-129 76,0 138,58 138,129z"/>
    <path class="fil3" d="M6290 8267c0,-49 -42,-88 -94,-88 -53,0 -95,39 -95,88 0,49 42,88 95,88 52,0 94,-39 94,-88zm44 0c0,71 -62,129 -138,129 -77,0 -139,-58 -139,-129 0,-71 62,-129 139,-129 76,0 138,58 138,129z"/>
    <path class="fil6" d="M6351 7714c-12,0 -21,9 -21,20l0 90c0,11 9,20 21,20 12,0 22,-9 22,-20l0 -90c0,-11 -10,-20 -22,-20z"/>
    <path class="fil6" d="M6351 7558c-12,0 -21,9 -21,21l0 89c0,11 9,20 21,20 12,0 22,-9 22,-20l0 -89c0,-12 -10,-21 -22,-21z"/>
    <path class="fil6" d="M6486 7681l-86 0c-12,0 -22,9 -22,20 0,11 10,20 22,20l86 0c12,0 21,-9 21,-20 0,-11 -9,-20 -21,-20z"/>
    <path class="fil6" d="M6303 7681l-86 0c-12,0 -21,9 -21,20 0,11 9,20 21,20l86 0c12,0 22,-9 22,-20 0,-11 -10,-20 -22,-20z"/>
    <path class="fil4" d="M5766 7857c-12,0 -22,9 -22,20l0 89c0,11 10,20 22,20 12,0 21,-9 21,-20l0 -89c0,-11 -9,-20 -21,-20z"/>
    <path class="fil4" d="M5766 7701c-12,0 -22,9 -22,20l0 89c0,11 10,21 22,21 12,0 21,-10 21,-21l0 -89c0,-11 -9,-20 -21,-20z"/>
    <path class="fil4" d="M5900 7824l-86 0c-12,0 -22,9 -22,20 0,11 10,20 22,20l86 0c12,0 22,-9 22,-20 0,-11 -10,-20 -22,-20z"/>
    <path class="fil4" d="M5717 7824l-85 0c-12,0 -22,9 -22,20 0,11 10,20 22,20l85 0c12,0 22,-9 22,-20 0,-11 -10,-20 -22,-20z"/>
    <path class="fil3" d="M6211 9118l0 430c0,27 -24,49 -53,49l-462 0c-20,0 -38,-10 -47,-25l-2 -6c-1,-2 -2,-5 -3,-7l0 -1 0 -1c-1,-3 -1,-6 -1,-9l0 -430c0,-26 21,-47 48,-50l5 0 462 0c5,0 11,1 15,2l1 0c21,7 37,25 37,48z"/>
    <path class="fil7" d="M5961 9479l-1 43 -58 -1 0 -41c-41,-2 -81,-13 -106,-28l32 -66c27,15 64,25 96,26 27,0 37,-6 37,-15 1,-34 -160,-8 -159,-108 0,-44 35,-81 103,-89l0 -42 58 0 0 42c31,3 61,10 84,23l-30 66c-28,-14 -55,-21 -81,-21 -28,0 -37,7 -37,17 -1,32 160,6 159,106 0,42 -33,78 -97,88z"/>
    <path class="fil4" d="M15334 12104l0 431c0,27 -23,50 -53,50l-462 0c-20,0 -38,-11 -47,-26l-2 -5c-1,-3 -2,-6 -3,-8l0 -1 0 -1c-1,-3 -1,-6 -1,-9l0 -431c0,-25 21,-46 47,-49l6 0 462 0c6,0 11,0 16,2l0 0c22,6 37,25 37,47z"/>
    <path class="fil7" d="M15049 12403l0 77c-11,-6 -45,-29 -65,-77l65 0zm-80 0c7,20 18,37 31,53 7,8 14,15 22,22 -46,-9 -86,-37 -109,-75l56 0zm-77 -85c2,-20 8,-40 17,-58l58 0c-7,19 -11,38 -11,58l-64 0zm157 13l0 59 -70 0c-6,-18 -9,-38 -9,-59l79 0zm-131 -84c23,-34 60,-59 101,-67 -8,8 -16,16 -23,26 -9,13 -17,26 -24,41l-54 0zm131 13l0 58 -79 0c1,-20 5,-39 12,-58l67 0zm-61 -13c6,-12 12,-23 20,-33 15,-20 30,-33 36,-38l5 0 0 71 -61 0zm-24 143l-58 0c-9,-19 -14,-38 -14,-59l63 0c1,21 4,40 9,59zm256 -59c-1,21 -6,40 -14,59l-57 0c5,-19 8,-38 9,-59l62 0zm-62 -13c-1,-20 -5,-39 -12,-58l56 0c10,18 16,38 17,58l-61 0zm-95 0l0 -58 68 0c7,19 12,38 12,58l-80 0zm78 -71c-7,-15 -15,-28 -24,-41 -7,-9 -15,-18 -23,-26 41,9 77,33 100,67l-53 0zm-78 0l0 -71 6 0c9,7 37,31 56,71l-62 0zm66 156c-7,16 -16,31 -26,44 -18,21 -35,31 -40,34l0 -78 66 0zm-16 53c14,-16 24,-33 31,-53l55 0c-23,38 -62,65 -107,74 8,-6 15,-13 21,-21zm-50 -66l0 -59 80 0c0,21 -3,41 -9,59l-71 0zm-7 -228c-98,0 -178,75 -178,166 0,92 80,166 178,166 98,0 178,-74 178,-166 0,-91 -80,-166 -178,-166z"/>
    <path class="fil8" d="M11637 7744l64 20 34 10 95 30c0,0 1426,-1075 1061,-1715 -113,-197 -453,-185 -643,474 -177,611 -611,1181 -611,1181z"/>
    <path class="fil9" d="M11701 7764l34 10c286,-281 507,-613 646,-851 166,-284 255,-500 256,-502 3,-8 -1,-17 -9,-20 -8,-3 -18,1 -21,9 -1,2 -89,217 -254,499 -140,240 -363,574 -652,855z"/>
    <path class="fil8" d="M7919 13411l-63 4 -33 2 -94 6c0,0 -1023,-1289 -530,-1790 152,-154 458,-69 464,571 7,594 256,1207 256,1207z"/>
    <path class="fil9" d="M7856 13415l-33 2c-189,-318 -306,-668 -372,-915 -79,-294 -105,-510 -105,-512 -1,-8 5,-15 13,-16 8,-1 16,5 17,13 0,2 26,216 104,508 67,249 185,602 376,920z"/>
    <path class="fil2" d="M8235 13605l-73 51 -39 26 -111 76c0,0 -2327,-827 -2145,-1797 56,-298 500,-416 1045,359 505,719 1323,1285 1323,1285z"/>
    <path class="fil8" d="M8162 13656l-39 26c-497,-250 -933,-592 -1221,-845 -342,-300 -555,-545 -557,-547 -8,-9 -7,-22 3,-29 9,-7 23,-5 30,3 3,3 215,245 555,544 289,255 728,599 1229,848z"/>
    <path class="fil2" d="M11306 7951l70 63 38 33 105 94c0,0 2582,-577 2533,-1626 -16,-323 -468,-504 -1158,246 -639,696 -1588,1190 -1588,1190z"/>
    <path class="fil8" d="M11376 8014l38 33c562,-201 1073,-507 1414,-738 406,-274 668,-505 670,-507 10,-9 10,-22 1,-31 -9,-9 -24,-9 -33,-1 -2,2 -262,232 -666,504 -343,233 -858,541 -1424,740z"/>
    <path class="fil8" d="M6686 7249c95,261 378,242 381,457 4,214 155,371 352,324 197,-47 339,-91 439,118 100,210 394,306 501,133 26,-43 55,-89 83,-135 8,-13 15,-25 23,-37 2,-3 4,-6 5,-9 114,-184 63,-419 -121,-543 -75,-51 -162,-77 -259,-47 -304,96 -206,-196 -394,-310 -217,-133 -390,33 -540,-81 -208,-158 -566,-130 -470,130z"/>
    <path class="fil9" d="M7057 7350l1385 796c8,-13 15,-25 23,-37l-1384 -796c-11,-6 -25,-3 -32,7 -6,10 -3,23 8,30z"/>
    <path class="fil2" d="M6898 5793c-42,339 285,458 166,699 -119,242 -40,492 207,538 247,45 431,66 423,350 -9,284 264,536 483,397 54,-35 113,-73 170,-110 16,-10 32,-20 47,-30 4,-2 7,-4 11,-7 231,-149 310,-437 175,-667 -54,-93 -137,-167 -263,-181 -393,-43 -117,-321 -261,-542 -167,-256 -456,-157 -557,-359 -142,-280 -558,-427 -601,-88z"/>
    <path class="fil8" d="M7256 6089l1091 1578c16,-10 32,-20 47,-30l-1090 -1576c-9,-13 -27,-16 -40,-8 -13,8 -17,24 -8,36z"/>
    <path class="fil8" d="M12845 11549c-281,86 -265,349 -495,349 -230,1 -401,140 -353,324 48,184 94,317 -133,407 -226,90 -333,363 -149,465 46,25 96,52 144,79 13,7 27,15 40,22 3,2 6,3 9,5 195,108 449,64 585,-106 55,-69 84,-150 53,-241 -99,-283 213,-188 339,-362 144,-200 -31,-364 93,-502 173,-192 148,-526 -133,-440z"/>
    <path class="fil9" d="M12732 11893l-873 1280c13,7 27,15 40,22l872 -1279c7,-10 4,-23 -7,-29 -11,-7 -25,-4 -32,6z"/>
    <path class="fil2" d="M13914 12095c-165,-20 -282,32 -385,83 -124,62 -228,124 -368,62 -257,-115 -528,-44 -580,185 -52,230 -77,401 -381,389 -304,-11 -579,240 -432,445 36,51 76,106 115,161 10,14 21,29 32,44 2,3 4,6 7,10 156,217 465,295 714,172 100,-49 180,-126 197,-242 32,-226 155,-213 301,-201 92,7 192,15 285,-36 276,-151 174,-422 392,-514 303,-128 466,-514 103,-558z"/>
    <path class="fil8" d="M13591 12424l-1708 996c10,14 21,29 32,44l1706 -995c13,-8 17,-24 9,-37 -8,-12 -26,-16 -39,-8z"/>
    <path class="fil8" d="M8158 10790c-355,-381 -987,-1133 -1182,-1435 -255,-394 -366,-715 -331,-953 2,-16 17,-27 34,-25 17,2 29,17 27,33 -61,416 303,1025 1483,2328l-31 52z"/>
    <path class="fil2" d="M6780 8986c0,0 -206,146 -466,-203 0,0 384,-139 466,203z"/>
    <path class="fil2" d="M6905 9172c0,0 -168,-184 192,-445 0,0 170,350 -192,445z"/>
    <path class="fil2" d="M6677 8587c0,0 -224,-122 22,-480 0,0 285,277 -22,480z"/>
    <path class="fil2" d="M7142 9554c0,0 -142,202 -513,-44 0,0 311,-252 513,44z"/>
    <path class="fil2" d="M7299 9726c0,0 -199,-154 106,-470 0,0 233,318 -106,470z"/>
    <path class="fil2" d="M7489 9982c0,0 -138,204 -514,-36 0,0 306,-257 514,36z"/>
    <path class="fil8" d="M10579 7348c184,-475 372,-869 560,-1175 246,-399 492,-646 732,-734 16,-6 34,1 41,16 6,15 -2,32 -18,38 -420,153 -870,844 -1304,1997l-11 -142z"/>
    <path class="fil2" d="M11390 5834c0,0 -237,-97 -37,-479 0,0 318,245 37,479z"/>
    <path class="fil2" d="M11276 6026c0,0 91,-226 511,-61 0,0 -245,309 -511,61z"/>
    <path class="fil2" d="M11714 5555c0,0 5,-241 460,-216 0,0 -120,367 -460,216z"/>
    <path class="fil2" d="M11034 6405c0,0 -259,-17 -209,-439 0,0 388,130 209,439z"/>
    <path class="fil2" d="M10949 6617c0,0 48,-237 492,-143 0,0 -184,344 -492,143z"/>
    <path class="fil2" d="M10802 6896c0,0 -258,-13 -217,-435 0,0 390,123 217,435z"/>
    <path class="fil3" d="M12287 7182l0 6823c0,214 -186,387 -415,387l-3647 0c-115,0 -219,-44 -294,-114 -75,-71 -121,-167 -121,-273l0 -6823c0,-213 186,-387 415,-387l3647 0c68,0 132,15 188,42 135,64 227,195 227,345z"/>
    <path class="fil10" d="M12287 7182l0 6823c0,214 -186,387 -415,387l-3647 0c-115,0 -219,-44 -294,-114l4129 -7441c135,64 227,195 227,345z"/>
    <path class="fil10" d="M7810 8924l-60 0c-51,0 -92,-39 -92,-86l0 -730c0,-47 41,-85 92,-85l60 0 0 901z"/>
    <path class="fil10" d="M12287 8688l49 0c42,0 76,-31 76,-70l0 -594c0,-39 -34,-70 -76,-70l-49 0 0 734z"/>
    <path class="fil10" d="M7810 9947l-60 0c-51,0 -92,-38 -92,-85l0 -730c0,-47 41,-86 92,-86l60 0 0 901z"/>
    <path class="fil7" d="M12080 7166l0 6856c0,97 -85,177 -190,177l-3683 0c-78,0 -145,-44 -174,-107 -10,-22 -16,-46 -16,-70l0 -6856c0,-98 85,-178 190,-178l3683 0c28,0 54,6 78,16 66,28 112,90 112,162z"/>
    <path class="fil2" d="M11704 12231l-2241 0c-41,0 -74,-31 -74,-69 0,-38 33,-69 74,-69l2241 0c41,0 74,31 74,69 0,38 -33,69 -74,69z"/>
    <path class="fil2" d="M11704 12528l-2241 0c-41,0 -74,-30 -74,-68 0,-38 33,-69 74,-69l2241 0c41,0 74,31 74,69 0,38 -33,68 -74,68z"/>
    <path class="fil2" d="M11704 12826l-2241 0c-41,0 -74,-31 -74,-69 0,-38 33,-68 74,-68l2241 0c41,0 74,30 74,68 0,38 -33,69 -74,69z"/>
    <polygon class="fil2" points="8403,12826 9189,12826 9189,12094 8403,12094 "/>
    <path class="fil2" d="M9697 7880l-1220 0c-41,0 -74,31 -74,69 0,38 33,69 74,69l1220 0c41,0 74,-31 74,-69 0,-38 -33,-69 -74,-69z"/>
    <path class="fil2" d="M9697 8178l-1220 0c-41,0 -74,31 -74,69 0,37 33,68 74,68l1220 0c41,0 74,-31 74,-68 0,-38 -33,-69 -74,-69z"/>
    <path class="fil2" d="M9697 8475l-1220 0c-41,0 -74,31 -74,69 0,38 33,69 74,69l1220 0c41,0 74,-31 74,-69 0,-38 -33,-69 -74,-69z"/>
    <path class="fil2" d="M11702 7880l-1220 0c-41,0 -74,31 -74,69 0,38 33,69 74,69l1220 0c41,0 74,-31 74,-69 0,-38 -33,-69 -74,-69z"/>
    <path class="fil2" d="M11702 8178l-1220 0c-41,0 -74,31 -74,69 0,37 33,68 74,68l1220 0c41,0 74,-31 74,-68 0,-38 -33,-69 -74,-69z"/>
    <path class="fil2" d="M11702 8475l-1220 0c-41,0 -74,31 -74,69 0,38 33,69 74,69l1220 0c41,0 74,-31 74,-69 0,-38 -33,-69 -74,-69z"/>
    <path class="fil3" d="M10996 13828l-1874 0c-119,0 -215,-90 -215,-201l0 -262c0,-111 96,-200 215,-200l1874 0c119,0 216,89 216,200l0 262c0,111 -97,201 -216,201z"/>
    <path class="fil10" d="M9537 13711l137 0 -80 -109c46,-22 72,-60 72,-111 0,-82 -68,-134 -174,-134l-183 0 0 354 129 0 0 -89 34 0 65 89zm-1 -220c0,25 -16,41 -52,41l-46 0 0 -83 46 0c36,0 52,16 52,42zm304 130l0 -46 161 0 0 -86 -161 0 0 -42 183 0 0 -90 -309 0 0 354 316 0 0 -90 -190 0zm489 -264l0 161 -144 -161 -105 0 0 354 124 0 0 -161 145 161 105 0 0 -354 -125 0zm270 354l128 0 0 -261 111 0 0 -93 -351 0 0 93 112 0 0 261z"/>
    <path class="fil7" d="M9537 13673l137 0 -80 -109c46,-22 72,-61 72,-112 0,-82 -68,-133 -174,-133l-183 0 0 354 129 0 0 -89 34 0 65 89zm-1 -221c0,26 -16,42 -52,42l-46 0 0 -83 46 0c36,0 52,16 52,41zm304 131l0 -47 161 0 0 -86 -161 0 0 -41 183 0 0 -90 -309 0 0 354 316 0 0 -90 -190 0zm489 -264l0 161 -144 -161 -105 0 0 354 124 0 0 -161 145 161 105 0 0 -354 -125 0zm270 354l128 0 0 -262 111 0 0 -92 -351 0 0 92 112 0 0 262z"/>
    <path class="fil3" d="M8620 7042l202 286c56,79 151,127 253,127l1947 0c102,0 198,-48 254,-127l201 -286c0,-29 -26,-54 -58,-54l-2741 0c-32,0 -58,25 -58,54z"/>
    <path class="fil11" d="M10710 7249l-1668 0c-34,0 -61,-26 -61,-58 0,-31 27,-57 61,-57l1668 0c34,0 62,26 62,57 0,32 -28,58 -62,58z"/>
    <path class="fil11" d="M11099 7187c0,39 -34,69 -74,69 -41,0 -74,-30 -74,-69 0,-38 33,-68 74,-68 40,0 74,30 74,68z"/>
    <polygon class="fil5" points="8305,11504 11813,11504 11813,10019 8305,10019 "/>
    <polygon class="fil6" points="8305,10137 11813,10137 11813,10019 8305,10019 "/>
    <polygon class="fil11" points="11813,9931 8305,9931 8578,9329 11539,9329 "/>
    <polygon class="fil3" points="8149,10019 11924,10019 11924,9927 8149,9927 "/>
    <polygon class="fil5" points="10797,11504 9320,11504 9320,10353 10078,9969 10797,10315 "/>
    <polygon class="fil6" points="9235,11504 9360,11504 9360,10458 9235,10458 "/>
    <polygon class="fil6" points="10759,11504 10883,11504 10883,10458 10759,10458 "/>
    <polygon class="fil3" points="9806,11506 10311,11506 10311,10729 9806,10729 "/>
    <polygon class="fil11" points="9857,11506 10260,11506 10260,10777 9857,10777 "/>
    <path class="fil3" d="M10235 11164c0,21 -19,39 -43,39 -23,0 -42,-18 -42,-39 0,-22 19,-40 42,-40 24,0 43,18 43,40z"/>
    <path class="fil3" d="M10371 10729l-624 0c-21,0 -38,-16 -38,-35l0 -23 699 0 0 23c0,19 -17,35 -37,35z"/>
    <polygon class="fil2" points="9912,11066 10036,11066 10036,10830 9912,10830 "/>
    <polygon class="fil7" points="10036,10840 10036,10909 9912,11025 9912,10956 "/>
    <polygon class="fil2" points="10088,11066 10212,11066 10212,10830 10088,10830 "/>
    <polygon class="fil7" points="10212,10840 10212,10909 10088,11025 10088,10956 "/>
    <path class="fil3" d="M11924 9928l-3775 0 0 -50c0,-42 36,-76 82,-76l3611 0c45,0 82,34 82,76l0 50z"/>
    <polygon class="fil11" points="11170,10459 10968,10458 10757,10458 10059,10019 9360,10458 9149,10458 8947,10459 10059,9761 "/>
    <polygon class="fil3" points="10968,10458 10757,10458 10059,10019 9360,10458 9149,10458 10059,9887 "/>
    <polygon class="fil2" points="8655,11177 8953,11177 8953,10659 8655,10659 "/>
    <polygon class="fil7" points="8953,10659 8848,10659 8655,10838 8655,10985 8953,10708 "/>
    <polygon class="fil7" points="8953,10878 8655,11155 8655,11177 8710,11177 8953,10952 "/>
    <path class="fil11" d="M8655 11177l0 -239 256 0 0 239 -256 0zm0 -518l256 0 0 240 -256 0 0 -240zm-41 -38l0 594 339 0 0 -594 -339 0z"/>
    <polygon class="fil12" points="8655,10659 8911,10659 8911,10659 8655,10659 "/>
    <polygon class="fil13" points="8819,10686 8655,10686 8655,10659 8911,10659 8848,10659 "/>
    <polygon class="fil14" points="8911,10686 8819,10686 8848,10659 8911,10659 "/>
    <polygon class="fil15" points="8953,10686 8911,10686 8911,10659 8655,10659 8655,10686 8614,10686 8614,10625 8953,10625 "/>
    <path class="fil3" d="M8987 10621l-408 0c-17,0 -31,-13 -31,-29l0 -18 470 0 0 18c0,16 -14,29 -31,29z"/>
    <polygon class="fil6" points="8614,11276 8953,11276 8953,11215 8614,11215 "/>
    <polygon class="fil2" points="11276,11177 11574,11177 11574,10659 11276,10659 "/>
    <polygon class="fil7" points="11574,10659 11469,10659 11277,10838 11277,10985 11574,10708 "/>
    <polygon class="fil7" points="11574,10878 11277,11155 11277,11177 11332,11177 11574,10952 "/>
    <path class="fil11" d="M11276 11177l0 -239 257 0 0 239 -257 0zm0 -518l257 0 0 240 -257 0 0 -240zm-40 -38l0 594 338 0 0 -594 -338 0z"/>
    <path class="fil3" d="M11609 10621l-408 0c-17,0 -31,-13 -31,-29l0 -18 470 0 0 18c0,16 -14,29 -31,29z"/>
    <polygon class="fil6" points="11236,11276 11574,11276 11574,11215 11236,11215 "/>
    <path class="fil3" d="M11464 9449l-2792 0c-9,0 -17,-8 -17,-17l0 -22c0,-9 8,-16 17,-16l2792 0c10,0 18,7 18,16l0 22c0,9 -8,17 -18,17z"/>
    <path class="fil3" d="M11501 9592l-2888 0c-9,0 -17,-7 -17,-16l0 -22c0,-9 8,-16 17,-16l2888 0c10,0 18,7 18,16l0 22c0,9 -8,16 -18,16z"/>
    <path class="fil3" d="M11622 9736l-3097 0c-10,0 -17,-7 -17,-16l0 -22c0,-9 7,-16 17,-16l3097 0c10,0 18,7 18,16l0 22c0,9 -8,16 -18,16z"/>
    <polygon class="fil5" points="8783,9550 9175,9550 9175,9139 8783,9139 "/>
    <polygon class="fil6" points="8783,9244 9175,9244 9175,9139 8783,9139 "/>
    <path class="fil11" d="M9257 8999l0 49c0,7 -1,14 -3,21 -10,40 -48,70 -94,70l-362 0c-45,0 -84,-30 -94,-70 -2,-7 -3,-14 -3,-21l0 -49 556 0z"/>
    <path class="fil3" d="M9254 9069c-10,40 -48,70 -94,70l-362 0c-45,0 -84,-30 -94,-70l550 0z"/>
    <path class="fil11" d="M11878 11597l-3643 0c-16,0 -30,-13 -30,-28l0 -37c0,-15 14,-28 30,-28l3643 0c16,0 29,13 29,28l0 37c0,15 -13,28 -29,28z"/>
    <path class="fil3" d="M11970 11687l-3827 0c-17,0 -30,-12 -30,-28l0 -36c0,-15 13,-28 30,-28l3827 0c17,0 30,13 30,28l0 36c0,16 -13,28 -30,28z"/>
    <polygon class="fil6" points="9360,10459 9360,10599 10068,10174 10759,10599 10757,10459 10059,10020 "/>
    <path class="fil7" d="M11890 14199l-3683 0c-78,0 -145,-44 -174,-107l703 -1266 453 0 0 -732 -47 0 226 -407 2602 0c17,0 30,-12 30,-28l0 -36c0,-15 -13,-28 -30,-28l-83 0c12,-4 20,-14 20,-26l0 -37c0,-15 -13,-28 -29,-28l-1567 0 1502 0 0 -1485 111 0 0 -141c0,-42 -37,-76 -82,-76l-88 0 -215 -473 -862 0 397 -716 628 0c41,0 74,-31 74,-69 0,-38 -33,-69 -74,-69l-551 0 89 -160 462 0c41,0 74,-31 74,-68 0,-38 -33,-69 -74,-69l-386 0 89 -160 297 0c41,0 74,-31 74,-69 0,-38 -33,-69 -74,-69l-221 0 487 -876c66,28 112,90 112,162l0 6856c0,97 -85,177 -190,177zm-2768 -1034c-119,0 -215,89 -215,200l0 262c0,111 96,201 215,201l1874 0c119,0 216,-90 216,-201l0 -262c0,-111 -97,-200 -216,-200l-1874 0zm341 -476c-41,0 -74,30 -74,68 0,38 33,69 74,69l2241 0c41,0 74,-31 74,-69 0,-38 -33,-68 -74,-68l-2241 0zm0 -298c-41,0 -74,31 -74,69 0,38 33,68 74,68l2241 0c41,0 74,-30 74,-68 0,-38 -33,-69 -74,-69l-2241 0zm0 -298c-41,0 -74,31 -74,69 0,38 33,69 74,69l2241 0c41,0 74,-31 74,-69 0,-38 -33,-69 -74,-69l-2241 0z"/>
    <path class="fil16" d="M11704 12231l-2241 0c-41,0 -74,-31 -74,-69 0,-38 33,-69 74,-69l2241 0c41,0 74,31 74,69 0,38 -33,69 -74,69z"/>
    <path class="fil16" d="M11704 12528l-2241 0c-41,0 -74,-30 -74,-68 0,-38 33,-69 74,-69l2241 0c41,0 74,31 74,69 0,38 -33,68 -74,68z"/>
    <path class="fil16" d="M11704 12826l-2241 0c-41,0 -74,-31 -74,-69 0,-38 33,-68 74,-68l2241 0c41,0 74,30 74,68 0,38 -33,69 -74,69z"/>
    <polygon class="fil16" points="9189,12826 8736,12826 9142,12094 9189,12094 "/>
    <path class="fil16" d="M11702 8018l-297 0 76 -138 221 0c41,0 74,31 74,69 0,38 -33,69 -74,69z"/>
    <path class="fil16" d="M11702 8315l-462 0 76 -137 386 0c41,0 74,31 74,69 0,37 -33,68 -74,68z"/>
    <path class="fil16" d="M11702 8613l-628 0 77 -138 551 0c41,0 74,31 74,69 0,38 -33,69 -74,69z"/>
    <path class="fil17" d="M10996 13828l-1874 0c-119,0 -215,-90 -215,-201l0 -262c0,-111 96,-200 215,-200l1874 0c119,0 216,89 216,200l0 262c0,111 -97,201 -216,201zm-1687 -471l0 354 1529 0 0 -392 -1529 0 0 38z"/>
    <polygon class="fil17" points="9309,13711 10838,13711 10838,13673 9309,13673 "/>
    <path class="fil18" d="M9537 13711l137 0 -28 -38 -137 0 28 38zm-228 -38l0 38 129 0 0 -38 -129 0zm405 0l316 0 0 38 -316 0 0 -38zm366 0l124 0 0 38 -124 0 0 -38zm235 0l139 0 0 38 -105 0 -34 -38zm284 0l128 0 0 38 -128 0 0 -38z"/>
    <polygon class="fil17" points="10838,13357 10838,13319 9309,13319 9309,13357 "/>
    <path class="fil7" d="M9622 13357c-30,-24 -74,-38 -129,-38l-184 0 0 38 313 0zm1216 54l0 -54 -351 0 0 -38 351 0 0 92zm-384 -54l-125 0 0 -38 125 0 0 38zm-235 0l-139 0 0 -38 105 0 34 38zm-196 0l-309 0 0 -38 309 0 0 38z"/>
    <polygon class="fil17" points="9309,13673 10838,13673 10838,13357 9309,13357 "/>
    <path class="fil18" d="M9646 13673l-52 -71c46,-22 72,-60 72,-111 0,-82 -68,-134 -174,-134l-183 0 0 316 129 0 0 -51 34 0 37 51 137 0zm1081 0l-128 0 0 -223 -112 0 0 -93 351 0 0 93 -111 0 0 223zm-273 0l-139 0 -111 -123 0 123 -124 0 0 -316 105 0 144 161 0 -161 125 0 0 316zm-424 0l-316 0 0 -316 309 0 0 90 -183 0 0 42 161 0 0 86 -161 0 0 46 190 0 0 52zm-494 -182c0,25 -16,41 -52,41l-46 0 0 -83 46 0c36,0 52,16 52,42z"/>
    <path class="fil7" d="M9309 13357l0 316 129 0 0 -89 34 0 65 89 137 0 -80 -110c46,-21 72,-60 72,-111 0,-39 -16,-72 -44,-95l-313 0zm405 0l309 0 0 52 -183 0 0 41 161 0 0 86 -161 0 0 47 190 0 0 90 -316 0 0 -316zm367 0l140 0 110 122 0 -122 124 0 0 316 -105 0 -144 -161 0 161 -125 0 0 -316zm406 0l350 0 0 54 -111 0 0 262 -128 0 0 -262 -111 0 0 -54zm-951 95c0,26 -16,42 -52,42l-46 0 0 -83 46 0c36,0 52,15 52,41z"/>
    <path class="fil7" d="M9646 13673l-52 -71c7,-4 14,-7 20,-11l-20 -28c40,-19 65,-50 70,-92 -10,-71 -74,-114 -172,-114l-183 0 0 316 129 0 0 -89 34 0 65 89 109 0zm377 -316l0 52 -183 0 0 41 0 0 0 39 161 0 0 47 -161 0 0 47 0 0 0 38 190 0 0 52 -316 0 0 -316 309 0zm306 121l2 1 0 -122 123 0 0 316 -104 0 -144 -161 0 40 -2 -2 0 123 -123 0 0 -316 104 0 144 161 0 -40zm508 -121l0 54 -111 0 0 262 -127 0 0 -223 -1 0 0 -39 -111 0 0 -54 350 0zm-1301 95c0,7 -1,14 -4,19 3,6 4,12 4,20 0,25 -16,41 -52,41l-46 0 0 -38 0 0 0 -83 46 0c36,0 52,15 52,41z"/>
    <path class="fil19" d="M11813 11504l-930 0 0 -1046 85 0 202 1 -511 -322 1154 0 0 1367zm-577 -289l0 61 338 0 0 -61 -338 0zm0 -594l0 594 338 0 0 -594 35 0c17,0 31,-13 31,-29l0 -18 -470 0 0 18c0,16 14,29 31,29l35 0z"/>
    <polygon class="fil20" points="11813,10137 10659,10137 10471,10019 11813,10019 "/>
    <path class="fil21" d="M11754 9802l-1340 0 37 -66 1171 0c10,0 18,-7 18,-16l0 -22c0,-9 -8,-16 -18,-16l-1141 0 50 -90 970 0c10,0 18,-7 18,-16l0 -22c0,-9 -8,-16 -18,-16l-940 0 50 -89 853 0c10,0 18,-8 18,-17l0 -22c0,-9 -8,-16 -18,-16l-823 0 36 -65 862 0 215 473z"/>
    <polygon class="fil17" points="11924,10019 10471,10019 10339,9937 10345,9928 11924,9928 "/>
    <path class="fil19" d="M10759 11504l-448 0 0 -775 60 0c20,0 37,-16 37,-35l0 -23 -476 0 240 -433 587 361 0 905zm-953 0l-337 0 337 -606 0 606zm953 -905l0 0 -2 -140 -524 -330 0 -1 524 330 2 0 0 141z"/>
    <polygon class="fil20" points="10883,11504 10759,11504 10759,10458 10883,10458 "/>
    <path class="fil17" d="M10311 11504l-51 0 0 -727 -387 0 27 -48 411 0 0 775zm-454 0l-51 0 0 -606 51 -92 0 698z"/>
    <path class="fil21" d="M10260 11504l-403 0 0 -698 16 -29 387 0 0 727zm-68 -380c-23,0 -42,18 -42,40 0,21 19,39 42,39 24,0 43,-18 43,-39 0,-22 -19,-40 -43,-40zm-104 -294l0 236 124 0 0 -236 -124 0zm-176 0l0 236 124 0 0 -236 -124 0z"/>
    <path class="fil17" d="M10192 11203c-23,0 -42,-18 -42,-39 0,-22 19,-40 42,-40 24,0 43,18 43,40 0,21 -19,39 -43,39z"/>
    <path class="fil17" d="M10371 10729l-471 0 32 -58 476 0 0 23c0,19 -17,35 -37,35z"/>
    <polygon class="fil16" points="10036,11066 9912,11066 9912,10830 10036,10830 9912,10830 9912,10864 10010,10864 9912,10956 9912,11025 10036,10909 "/>
    <polygon class="fil7" points="9912,11025 9912,10956 10010,10864 10036,10864 10036,10909 "/>
    <polygon class="fil22" points="10010,10864 9912,10864 9912,10830 10036,10830 10036,10840 "/>
    <polygon class="fil23" points="10036,10864 10010,10864 10036,10840 "/>
    <polygon class="fil16" points="10212,11066 10088,11066 10088,10830 10212,10830 10088,10830 10088,10864 10186,10864 10088,10956 10088,11025 10212,10909 "/>
    <polygon class="fil7" points="10088,11025 10088,10956 10186,10864 10212,10864 10212,10909 "/>
    <polygon class="fil22" points="10186,10864 10088,10864 10088,10830 10212,10830 10212,10840 "/>
    <polygon class="fil23" points="10212,10864 10186,10864 10212,10840 "/>
    <path class="fil17" d="M11924 9928l-1579 0 69 -126 1428 0c45,0 82,34 82,76l0 50z"/>
    <polygon class="fil21" points="11170,10459 10968,10458 10287,10031 10339,9937 10471,10019 10659,10137 "/>
    <polygon class="fil17" points="10968,10458 10883,10458 10759,10458 10757,10458 10233,10128 10287,10031 "/>
    <path class="fil16" d="M11533 11177l-201 0 201 -187 0 187zm-256 0l-1 0 0 -239 1 0 0 47 50 -47 184 0 -234 217 0 22z"/>
    <polygon class="fil7" points="11277,10985 11277,10938 11327,10938 "/>
    <path class="fil16" d="M11533 10899l-164 0 164 -153 0 153zm-256 0l-1 0 0 -213 165 0 -164 152 0 61z"/>
    <polygon class="fil7" points="11369,10899 11277,10899 11277,10838 11441,10686 11533,10686 11533,10746 "/>
    <polygon class="fil7" points="11332,11177 11277,11177 11277,11155 11511,10938 11533,10938 11533,10990 "/>
    <path class="fil21" d="M11574 11215l-338 0 0 -594 338 0 0 4 -338 0 0 61 40 0 0 213 257 0 0 -213 41 0 0 529zm-242 -38l201 0 0 -239 -257 0 0 239 56 0z"/>
    <polygon class="fil24" points="11276,10659 11533,10659 11533,10659 11276,10659 "/>
    <polygon class="fil22" points="11441,10686 11276,10686 11276,10659 11533,10659 11469,10659 "/>
    <polygon class="fil23" points="11533,10686 11441,10686 11469,10659 11533,10659 "/>
    <polygon class="fil25" points="11574,10686 11533,10686 11533,10659 11276,10659 11276,10686 11236,10686 11236,10625 11574,10625 "/>
    <path class="fil17" d="M11609 10621l-408 0c-17,0 -31,-13 -31,-29l0 -18 470 0 0 18c0,16 -14,29 -31,29z"/>
    <polygon class="fil20" points="11236,11276 11574,11276 11574,11215 11236,11215 "/>
    <path class="fil17" d="M11464 9449l-853 0 30 -55 823 0c10,0 18,7 18,16l0 22c0,9 -8,17 -18,17z"/>
    <path class="fil17" d="M11501 9592l-970 0 30 -54 940 0c10,0 18,7 18,16l0 22c0,9 -8,16 -18,16z"/>
    <path class="fil17" d="M11622 9736l-1171 0 30 -54 1141 0c10,0 18,7 18,16l0 22c0,9 -8,16 -18,16z"/>
    <path class="fil21" d="M11887 11595l-2468 0 50 -91 2409 0c16,0 29,13 29,28l0 37c0,12 -8,22 -20,26z"/>
    <path class="fil17" d="M11970 11687l-2602 0 51 -92 2551 0c17,0 30,13 30,28l0 36c0,16 -13,28 -30,28z"/>
    <path class="fil20" d="M10759 10599l0 0zm0 0l-587 -361 61 -109 524 330 2 140z"/>
    <path class="fil4" d="M5691 13139l305 95c39,12 81,-7 93,-43l259 -721 107 -298 -445 -139 -63 177 -303 842c-13,36 8,75 47,87z"/>
    <path class="fil5" d="M5947 12210c88,92 222,200 401,260l107 -298 -445 -139 -63 177z"/>
    <path class="fil3" d="M5982 13230l-30 83 -384 1067c-25,71 -108,110 -184,86 -76,-24 -117,-101 -92,-172l347 -967 66 -183 277 86z"/>
    <polygon class="fil10" points="5982,13230 5952,13313 5639,13327 5705,13144 "/>
    <path class="fil11" d="M5552 10717c199,-544 835,-836 1418,-651 584,185 897,778 698,1322 -198,543 -835,835 -1418,650 -583,-185 -896,-778 -698,-1321zm-192 -61c-234,643 135,1342 825,1560 690,219 1440,-125 1675,-768 235,-643 -134,-1341 -825,-1560 -690,-219 -1440,125 -1675,768z"/>
    <path class="fil7" d="M6729 12088c-230,-258 -433,-355 -585,-355 -109,0 -192,50 -239,127 -69,-53 -131,-113 -185,-179 -129,-159 -208,-351 -224,-553 -1,-1 -1,-2 -1,-3 -3,-49 -3,-98 0,-145 2,-30 6,-59 11,-87l0 0c-5,28 -9,57 -11,87l1348 1090c-38,8 -76,14 -114,18zm355 -251l-1494 -1209c-16,33 -30,66 -42,100l0 0c12,-34 26,-67 42,-100 54,-114 130,-217 224,-306 34,-32 71,-63 109,-91l0 0c-38,28 -75,59 -109,91l1537 1245c-1,0 -2,0 -2,0 -55,0 -108,24 -150,66 -57,58 -94,128 -115,204z"/>
    <path class="fil26" d="M7204 11934l-120 -97c21,-76 58,-146 115,-204 42,-42 95,-66 150,-66 0,0 1,0 2,0l146 118c-59,71 -128,136 -204,191 -29,21 -59,40 -89,58z"/>
    <path class="fil27" d="M6609 12093c-55,0 -110,-3 -164,-11 -61,-8 -122,-22 -183,-40 -131,-40 -252,-103 -357,-182 47,-77 130,-127 239,-127 152,0 355,97 585,355 -11,1 -23,2 -34,2 -2,1 -4,1 -6,1 -27,2 -53,2 -80,2z"/>
    <path class="fil7" d="M7724 11141l-1364 -1104c58,-12 117,-20 176,-24 25,-2 50,-2 75,-2 50,0 100,3 149,9 69,9 139,24 207,45 213,67 398,193 533,357 130,161 209,354 225,556 0,1 0,1 0,1 4,55 4,109 -1,162l0 0z"/>
    <path class="fil28" d="M6695 12090c11,0 23,-1 34,-2 38,-4 76,-10 114,-18l0 1c-48,9 -98,16 -148,19zm-250 -8c-63,-9 -124,-22 -183,-40 61,18 122,32 183,40zm759 -148l0 0c30,-18 60,-37 89,-58 -29,21 -59,40 -89,58l0 0zm-1484 -253c-127,-155 -208,-345 -224,-553 16,202 95,394 224,553zm2005 -703c-16,-202 -95,-395 -225,-556 127,156 209,347 225,556zm-1802 -747c126,-92 275,-159 437,-194 56,-12 113,-20 172,-24 1,0 3,0 4,0 -59,4 -118,12 -176,24l0 0c-162,35 -311,102 -437,194l0 0zm1044 -166c-68,-21 -138,-36 -207,-45 71,9 141,24 207,45z"/>
    <path class="fil7" d="M7520 11656c-51,-62 -111,-89 -169,-89l-1537 -1245c34,-32 71,-63 109,-91 129,-93 278,-159 437,-194l1364 1104c0,3 -1,6 -1,9 -8,79 -26,159 -55,238 -1,4 -3,8 -5,13 -35,91 -83,177 -143,255z"/>
    <path class="fil29" d="M7497 11685l-146 -118c58,0 118,27 169,89 -7,9 -15,19 -23,29l0 0z"/>
    <path class="fil30" d="M7663 11401c2,-5 4,-9 5,-13 29,-79 47,-159 55,-238 -9,87 -29,171 -60,251zm-1740 -1170c126,-92 275,-159 437,-194l0 0c-159,35 -308,101 -437,194z"/>
    <path class="fil7" d="M6843 12070l-1348 -1090c2,-30 6,-59 11,-87 9,-55 23,-110 42,-165 12,-34 26,-67 42,-100l1494 1209c-13,53 -20,108 -19,166 -71,29 -146,52 -222,67z"/>
    <path class="fil29" d="M7065 12003c-1,-58 6,-113 19,-166l120 97c-45,26 -91,49 -139,69z"/>
    <path class="fil30" d="M6843 12071l0 -1c76,-15 151,-38 222,-67 48,-20 94,-43 139,-69l0 0c-109,64 -230,111 -361,137l0 0zm-1337 -1178c9,-57 23,-112 42,-165 -19,55 -33,110 -42,165z"/>
    <polygon class="fil31" points="12958,13869 12944,14105 13149,14109 13175,13861 "/>
    <path class="fil5" d="M13025 14072c0,0 106,-22 135,-21 29,2 215,211 280,225 118,26 111,198 38,204 -209,18 -563,-77 -563,-77 0,0 -24,-222 -7,-291 17,-69 58,-22 117,-40z"/>
    <path class="fil7" d="M13191 14267c-4,1 -8,0 -12,-2 -6,-5 -7,-13 -3,-19 2,-2 39,-50 84,-65 59,-21 99,13 101,15 6,5 6,14 1,19 -6,5 -15,6 -21,1 -1,-1 -29,-24 -71,-10 -36,13 -70,55 -70,56 -3,3 -6,4 -9,5z"/>
    <path class="fil7" d="M13152 14225c-4,0 -8,0 -11,-3 -6,-4 -8,-12 -3,-18 1,-2 39,-50 83,-65 60,-21 100,13 102,15 6,5 6,13 0,19 -5,5 -14,6 -20,0 -1,0 -29,-24 -71,-9 -37,13 -70,55 -71,55 -2,3 -5,5 -9,6z"/>
    <path class="fil7" d="M13245 14304c-4,0 -8,0 -11,-3 -7,-4 -8,-13 -3,-19 1,-2 39,-49 83,-64 60,-21 100,13 101,15 6,5 7,13 1,19 -5,5 -14,5 -20,0 -1,-1 -30,-24 -72,-9 -36,12 -70,55 -70,55 -2,3 -6,5 -9,6z"/>
    <path class="fil3" d="M13714 10990c0,0 -4,56 -12,148 -2,24 -4,51 -7,80 -26,309 -78,867 -134,1263 -79,556 -327,1468 -327,1468l-257 -8 -25 -1 -61 -2c0,0 43,-577 97,-1078 36,-331 57,-1113 68,-1607 5,-255 8,-433 8,-433l650 170z"/>
    <path class="fil10" d="M13714 10990c0,0 -4,56 -12,148 -2,24 -4,51 -7,80 -118,21 -443,35 -639,35 5,-255 8,-433 8,-433l650 170z"/>
    <path class="fil10" d="M13202 11134c-1,19 -24,1818 -225,2807l-25 -1c201,-986 224,-2788 225,-2807l25 1z"/>
    <polygon class="fil31" points="14567,13914 14558,14127 14349,14117 14344,13891 "/>
    <path class="fil5" d="M14505 14118c0,0 46,-56 81,-53 35,3 306,210 399,228 94,18 75,82 57,114 -18,33 -748,-22 -748,-22 0,0 -17,-203 8,-265 25,-62 129,11 203,-2z"/>
    <path class="fil7" d="M14654 14261c-3,1 -7,1 -10,-1 -6,-4 -9,-11 -5,-17 1,-2 31,-48 70,-65 51,-24 91,4 92,5 6,4 7,12 3,17 -5,6 -13,7 -19,2 -1,0 -28,-19 -65,-2 -32,14 -58,55 -58,56 -2,2 -5,4 -8,5z"/>
    <path class="fil7" d="M14615 14226c-3,1 -7,1 -10,-1 -6,-4 -8,-11 -4,-17 1,-2 30,-48 69,-65 52,-24 91,4 93,5 6,4 7,12 2,17 -4,6 -12,7 -18,2 -1,0 -29,-19 -66,-2 -31,14 -58,55 -58,56 -2,2 -4,4 -8,5z"/>
    <path class="fil7" d="M14707 14290c-4,1 -7,0 -11,-1 -6,-4 -8,-11 -4,-17 1,-2 30,-48 69,-66 52,-23 91,5 93,6 6,4 7,11 3,17 -5,5 -13,6 -19,2 -1,-1 -29,-19 -65,-3 -32,15 -58,56 -59,56 -1,3 -4,5 -7,6z"/>
    <path class="fil3" d="M14605 13970l-213 -15 -25 -2 -52 -3c0,0 -130,-1158 -171,-1466 -35,-268 -200,-870 -307,-1245 -30,-106 -56,-194 -73,-251 -13,-45 -21,-70 -21,-70l711 -64c0,0 2,14 5,40 7,54 20,157 37,286 44,351 111,897 138,1175 67,717 -29,1615 -29,1615z"/>
    <path class="fil10" d="M14496 11180l-659 59c-30,-106 -56,-194 -73,-251l695 -94c7,54 20,157 37,286z"/>
    <path class="fil10" d="M14392 13955l-25 -2c-12,-358 -50,-1252 -127,-1631 -97,-478 -319,-1173 -322,-1180l24 -7c3,7 226,704 323,1183 77,381 115,1280 127,1637z"/>
    <path class="fil31" d="M14414 9200c14,86 28,169 41,239 20,112 35,189 35,189l109 291c37,100 161,145 261,94l5 -2c37,-26 66,-77 92,-196l0 0c1,-10 98,-455 99,-614l-221 -20c-10,-19 -57,209 -68,188 -6,-13 -13,-27 -20,-42 -12,-23 -24,-48 -36,-72 -18,-36 -36,-72 -55,-109 -135,-271 -278,-557 -278,-557 -47,24 -8,335 36,611z"/>
    <path class="fil32" d="M14414 9200c14,86 28,169 41,239 128,-45 210,-126 256,-184 -18,-36 -36,-72 -55,-109l-242 54z"/>
    <path class="fil32" d="M14707 9721l2 0c7,-1 13,-6 13,-12 15,-155 33,-271 45,-340 -6,-13 -13,-27 -20,-42 -12,61 -35,191 -53,380 0,7 5,13 13,14z"/>
    <path class="fil4" d="M14798 9130c0,0 -27,33 -75,71 -59,47 -168,106 -280,113 -107,-313 -140,-707 -108,-811 55,56 336,368 463,627z"/>
    <path class="fil3" d="M14723 9135l3 2 30 16 7 -12 258 -6c22,-1 40,-17 42,-37l48 -503c0,-3 0,-5 0,-7l9 -15 -31 -16 -1 -1 -1 0c-6,-3 -13,-5 -20,-5l-274 7c-22,1 -40,17 -42,37l-47 503c-2,15 6,29 19,37z"/>
    <path class="fil11" d="M14779 9158l274 -7c22,0 39,-16 41,-36l48 -503c2,-24 -18,-45 -44,-44l-274 7c-22,1 -40,16 -42,37l-47 503c-2,24 18,44 44,43z"/>
    <path class="fil31" d="M15121 8832c25,3 4,37 21,86 21,61 -87,310 -87,310 -105,44 -231,-34 -231,-34 0,0 -27,-190 -2,-275 0,0 15,-77 20,-122 4,-45 25,-96 41,-87 15,9 18,46 19,74 0,27 6,80 6,80 0,0 8,-65 10,-101 1,-36 -2,-94 21,-105 30,-14 38,63 42,91 4,27 -8,114 -8,114 0,0 21,-97 15,-126 -5,-29 -11,-85 -9,-109 1,-23 34,-20 44,10 10,29 21,88 24,108 3,25 -4,109 -4,109 0,0 13,-96 13,-121 -1,-20 -8,-61 0,-85 8,-23 38,-28 48,34 10,62 11,70 9,88 -3,33 -9,69 -5,83 2,6 10,6 10,6l3 -28z"/>
    <path class="fil4" d="M14569 10905c-529,157 -1067,187 -1614,91 -11,-139 -38,-594 -59,-1074 -1,-16 -2,-32 -2,-48 -1,-13 -1,-26 -2,-38 0,-10 -1,-19 -1,-28 0,-4 0,-9 -1,-13 0,-12 -1,-25 -1,-38 -1,-10 -1,-21 -1,-31l-1 -4 0 -4c0,-11 -1,-22 -1,-33 0,-2 0,-4 0,-6 -1,-14 -1,-27 -2,-40 0,-9 0,-18 -1,-27 0,-4 0,-7 0,-11 -1,-10 -1,-20 -1,-30 -1,-3 -1,-6 -1,-9 0,-9 0,-19 0,-28 -1,-4 -1,-8 -1,-12 0,-13 -1,-26 -1,-39 -1,-13 -1,-25 -1,-38 -1,-8 -1,-17 -1,-25 -1,-18 -1,-36 -2,-54 -11,-411 -10,-748 22,-794 74,-107 429,-280 536,-359l1 16c0,0 76,83 155,72 71,-10 121,-90 129,-105 58,34 191,86 320,142 129,56 254,115 297,165 37,42 79,371 117,775l0 1c0,7 1,15 2,22l0 2c0,5 1,11 2,17 0,4 0,7 1,11 0,8 1,17 2,25 1,13 2,25 3,38 1,13 2,26 4,39 0,4 0,8 1,12 0,9 1,18 2,27 0,3 1,6 1,10 1,9 2,20 2,30l1 11c1,8 2,17 3,26 1,13 2,27 3,40 0,2 0,4 0,6 1,11 2,22 3,33l0 4 1 4c1,11 1,21 2,31 1,13 2,25 3,38 1,4 1,9 1,13 1,9 2,18 2,28 2,12 3,25 3,38 2,16 3,32 4,48 37,477 64,933 71,1073z"/>
    <path class="fil5" d="M14467 9445l-1586 89c-1,-4 -1,-8 -1,-12 0,-13 -1,-26 -1,-39 -1,-13 -1,-25 -1,-38 -1,-8 -1,-17 -1,-25l1580 -89c0,8 1,17 2,25 1,13 2,25 3,38 1,13 2,26 4,39 0,4 0,8 1,12z"/>
    <path class="fil5" d="M14483 9636l-1595 90 -1 -4 0 -4c0,-11 -1,-22 -1,-33 0,-2 0,-4 0,-6 -1,-14 -1,-27 -2,-40 0,-9 0,-18 -1,-27l1590 -89c1,8 2,17 3,26 1,13 2,27 3,40 0,2 0,4 0,6 1,11 2,22 3,33l0 4 1 4z"/>
    <path class="fil5" d="M14498 9832l-1602 90c-1,-16 -2,-32 -2,-48 -1,-13 -1,-26 -2,-38 0,-10 -1,-19 -1,-28l1598 -90c1,9 2,18 2,28 2,12 3,25 3,38 2,16 3,32 4,48z"/>
    <path class="fil5" d="M14276 9077c50,56 126,184 160,243 5,8 9,15 12,20 4,7 6,11 6,11l5 5c-1,-12 -2,-24 -3,-36 -1,-6 -2,-12 -2,-18l0 -1c-7,-12 -15,-26 -25,-41 -39,-65 -94,-153 -134,-198 -4,-5 -12,-5 -18,-1 -5,4 -5,11 -1,16z"/>
    <path class="fil5" d="M13215 8683l0 0c214,-18 374,-110 470,-185 105,-80 158,-155 160,-158 4,-6 2,-13 -3,-16 -6,-4 -14,-2 -18,3 -2,3 -214,299 -611,333 -7,1 -12,6 -11,13 0,6 6,11 13,10z"/>
    <path class="fil5" d="M14139 10654c6,-1 11,-6 11,-12 0,-6 -5,-12 -12,-12 -353,-1 -573,-155 -696,-284 -133,-140 -184,-282 -184,-284 -2,-6 -9,-9 -16,-7 -6,2 -10,8 -8,15 2,5 52,147 189,290 126,133 352,292 715,294l1 0z"/>
    <path class="fil5" d="M13841 10459c5,-1 10,-4 11,-10 2,-6 -3,-12 -9,-13 -311,-60 -385,-294 -386,-296 -2,-7 -8,-10 -15,-9 -7,2 -11,9 -9,15 1,2 20,63 79,133 55,64 156,147 325,180l4 0z"/>
    <path class="fil5" d="M13029 9109c-42,61 -101,197 -127,259 -4,9 -7,16 -9,22 -3,7 -5,11 -5,11 -2,5 -6,8 -11,8l0 0c0,-6 -1,-12 -1,-18 -4,0 -7,1 -11,1 2,-4 5,-12 10,-25 7,-15 15,-36 26,-59 30,-69 73,-162 107,-212 4,-5 12,-7 18,-3 6,3 7,11 3,16z"/>
    <path class="fil3" d="M13149 7496c0,0 -36,-147 -1,-199 36,-52 99,-41 163,-102 63,-62 270,-18 359,-38 48,-11 101,-8 148,-20 68,-17 109,45 97,109 -8,40 -26,101 -87,120 0,0 -600,-67 -679,130z"/>
    <path class="fil3" d="M13143 7614c14,214 164,353 394,340 229,-13 378,-180 365,-394 -14,-213 -161,-368 -390,-355 -275,16 -383,195 -369,409z"/>
    <path class="fil32" d="M13200 7703c0,0 -69,-75 -112,-7 -43,68 37,257 150,204l-38 -197z"/>
    <path class="fil33" d="M13208 7841c-4,1 -8,-2 -9,-6 -22,-58 -90,-79 -91,-79 -5,-2 -8,-7 -6,-12 1,-4 7,-7 12,-6 3,1 78,24 103,91 2,5 -1,10 -6,12l-3 0z"/>
    <path class="fil33" d="M13139 7815l-5 -1c-5,-3 -6,-8 -4,-13 1,0 11,-18 35,-29 5,-3 11,-1 14,4 2,4 0,10 -5,12 -18,9 -26,22 -27,22 -1,3 -4,5 -8,5z"/>
    <path class="fil32" d="M13857 7666c0,0 58,-82 110,-20 52,63 -3,260 -122,219l12 -199z"/>
    <path class="fil33" d="M13867 7804c4,0 8,-3 9,-7 14,-61 78,-88 79,-89 5,-2 7,-7 5,-12 -2,-4 -8,-7 -13,-4 -3,1 -74,31 -91,101 -1,5 3,10 8,11l3 0z"/>
    <path class="fil33" d="M13932 7770l5 -1c4,-3 5,-9 2,-13 -1,-1 -13,-17 -39,-26 -5,-1 -10,1 -12,6 -2,4 0,10 5,12 20,6 30,19 30,19 2,2 5,4 9,3z"/>
    <path class="fil31" d="M13709 8038l12 192c0,0 -55,101 -138,113 -82,11 -162,-76 -162,-76l-13 -199 301 -30z"/>
    <path class="fil32" d="M13709 8038l5 85c-52,61 -150,81 -298,69l-8 -124 301 -30z"/>
    <path class="fil31" d="M13166 7701c2,12 4,23 5,34 5,29 11,58 19,87l1 3c37,140 108,276 245,313 311,84 403,-165 438,-309 3,-16 7,-34 9,-53l1 -2c2,-21 5,-44 6,-67 2,-17 2,-35 3,-52 2,-43 2,-85 1,-123 -1,-87 -61,-163 -150,-189 -128,-37 -319,-62 -492,43 -64,39 -102,106 -99,177 2,39 6,87 13,138z"/>
    <path class="fil3" d="M13409 7707c1,20 -9,38 -23,38 -14,1 -27,-15 -28,-35 -1,-21 9,-38 23,-39 14,-1 26,15 28,36z"/>
    <path class="fil3" d="M13720 7689c1,21 -9,38 -23,39 -14,1 -27,-15 -28,-36 -1,-20 9,-38 23,-39 14,0 26,16 28,36z"/>
    <path class="fil3" d="M13755 7560c0,0 -82,-25 -142,4l9 31c0,0 90,-12 136,3 4,-13 3,-25 -3,-38z"/>
    <path class="fil3" d="M13281 7587c0,0 78,-34 141,-13l-4 33c0,0 -91,-2 -135,17 -5,-12 -6,-24 -2,-37z"/>
    <path class="fil32" d="M13550 7857c-17,2 -34,-1 -37,-1 -5,-1 -8,-6 -7,-11 1,-5 6,-8 11,-7 10,2 32,3 40,-3 1,-2 3,-4 3,-10 -3,-32 -33,-135 -33,-136 -2,-5 1,-10 7,-12 5,-1 10,2 12,7 1,4 31,106 33,140 2,13 -4,20 -9,24 -6,5 -13,7 -20,9z"/>
    <path class="fil7" d="M13419 7919c11,37 42,105 131,99 90,-5 111,-69 117,-113l-248 14z"/>
    <path class="fil3" d="M13893 7666l-45 2c2,-41 -17,-91 -33,-123 -35,-75 28,-112 -27,-147 -55,-35 -184,-11 -274,-9 -92,2 -238,12 -273,22 -35,9 -12,63 4,105 16,42 -38,92 -44,137 -2,13 -1,31 3,52l-37 2c-8,-54 -12,-104 -14,-144 -3,-71 35,-138 99,-177 173,-105 365,-80 492,-43 89,26 149,102 150,189 1,41 1,88 -1,134z"/>
    <path class="fil7" d="M13597 7711c3,50 50,89 105,86 54,-3 95,-47 92,-97 -3,-51 -50,-90 -104,-87 -55,3 -96,47 -93,98zm-18 1c-4,-60 45,-112 110,-116 64,-3 119,43 123,103 4,60 -45,111 -109,115 -65,4 -120,-42 -124,-102z"/>
    <path class="fil7" d="M13278 7729c3,50 50,89 104,86 55,-3 96,-47 93,-97 -3,-51 -50,-90 -105,-87 -54,3 -95,47 -92,98zm-18 1c-4,-60 45,-112 109,-116 65,-3 120,42 124,102 4,60 -45,112 -110,116 -64,3 -120,-42 -123,-102z"/>
    <path class="fil7" d="M13790 7665c3,-1 5,-1 7,-3 0,-1 50,-52 121,-40 5,0 9,-3 10,-7 1,-5 -2,-9 -7,-10 -81,-13 -136,43 -138,45 -3,4 -3,9 1,12 2,2 4,3 6,3z"/>
    <path class="fil7" d="M13275 7694c3,-1 6,-2 7,-5 3,-4 1,-9 -3,-11 -4,-2 -90,-47 -159,-32 -5,1 -8,5 -7,10 1,4 6,7 11,6 63,-13 145,30 146,31l5 1z"/>
    <path class="fil7" d="M13485 7692c0,0 20,-28 49,-30 28,-2 49,25 49,25l15 -10c-1,-2 -27,-34 -65,-32 -38,2 -62,37 -63,38l15 9z"/>
    <path class="fil31" d="M12988 10793l-103 132c0,0 -60,-35 -141,-96l-1 0c-123,-92 -296,-244 -385,-422 -110,-223 -78,-403 -78,-403 15,-132 110,-400 185,-599 28,-73 53,-136 71,-180l231 50 98 56 -38 94 -254 629c22,185 122,367 219,503 100,142 196,236 196,236z"/>
    <path class="fil32" d="M12988 10793l-103 132c0,0 -60,-35 -141,-96l-1 0c-17,-100 -7,-240 49,-272 100,142 196,236 196,236z"/>
    <path class="fil31" d="M12933 10642c21,1 132,6 120,-29 -14,-39 -122,-85 -122,-85 0,0 -1,-2 0,-4l-1 -9 -5 -83c-21,0 -40,4 -51,7 -47,13 -41,115 -41,115 0,0 -60,20 -58,61 3,41 51,47 51,47 0,0 -66,31 -51,66 16,35 66,45 66,45 0,0 -57,35 -37,59 20,25 66,37 66,37 0,0 -40,50 1,77 40,28 99,22 137,9 38,-12 31,-57 -43,-90 0,0 66,6 99,-45 27,-43 -43,-61 -103,-69 47,3 128,2 142,-40 19,-55 -145,-67 -170,-69z"/>
    <path class="fil32" d="M12865 9331l-38 94c-76,4 -213,6 -362,-20 28,-73 53,-136 71,-180l231 50 98 56z"/>
    <path class="fil4" d="M12897 8572c0,0 -281,262 -486,721 161,48 313,82 454,99 19,-31 93,-227 148,-368l-116 -452z"/>
    <rect class="fil1" x="8410" y="13058" width="3249" height="878"/>
   </g>
   <rect class="fil1" x="5617" y="1450" width="10996" height="1736" rx="318" ry="296"/>
   <g>
    <path class="fil34" d="M8728 2054l107 0c33,0 59,10 79,28 19,18 29,43 29,73l0 50c0,31 -10,55 -29,73 -20,19 -46,28 -79,28l-39 0 0 172 -68 0 0 -424zm104 192c14,0 24,-4 31,-11 8,-7 11,-16 11,-29l0 -52c0,-12 -3,-22 -11,-29 -7,-7 -17,-10 -31,-10l-36 0 0 131 36 0zm147 -192l219 0 0 61 -75 0 0 363 -69 0 0 -363 -75 0 0 -61zm222 360l69 0 0 64 -69 0 0 -64zm279 -360l107 0c33,0 59,10 79,28 19,18 29,43 29,73l0 222c0,30 -10,55 -29,73 -20,18 -46,28 -79,28l-107 0 0 -424zm104 363c13,0 24,-3 31,-10 8,-7 11,-17 11,-29l0 -224c0,-12 -3,-22 -11,-29 -7,-7 -18,-10 -31,-10l-36 0 0 302 36 0zm180 -363l195 0 0 61 -126 0 0 118 100 0 0 60 -100 0 0 124 126 0 0 61 -195 0 0 -424zm407 424l-50 -175 -35 0 0 175 -69 0 0 -424 108 0c32,0 59,10 78,28 19,18 29,43 29,73l0 47c0,19 -4,36 -12,51 -8,15 -20,27 -35,35l58 190 -72 0zm-85 -236l35 0c14,0 24,-3 31,-10 8,-7 11,-16 11,-29l0 -49c0,-12 -3,-22 -11,-29 -7,-7 -17,-10 -31,-10l-35 0 0 127zm213 -188l69 0 0 424 -69 0 0 -424zm144 0l76 0 88 285 0 -285 67 0 0 424 -73 0 -90 -271 0 271 -68 0 0 -424zm436 0l69 0 0 424 -69 0 0 -424zm144 0l76 0 88 285 0 -285 67 0 0 424 -73 0 -90 -271 0 271 -68 0 0 -424zm306 0l69 0 0 424 -69 0 0 -424zm144 0l76 0 88 285 0 -285 67 0 0 424 -72 0 -91 -271 0 271 -68 0 0 -424zm307 0l75 0 88 285 0 -285 68 0 0 424 -73 0 -91 -271 0 271 -67 0 0 -424zm441 330l-74 0 -14 94 -69 0 75 -424 92 0 75 424 -70 0 -15 -94zm-9 -62l-28 -177 -27 177 55 0zm470 -268l-67 424 -76 0 -36 -279 -36 279 -76 0 -67 -424 69 0 38 286 38 -286 70 0 37 286 38 -286 68 0zm175 330l-74 0 -15 94 -68 0 75 -424 92 0 75 424 -70 0 -15 -94zm-9 -62l-28 -177 -28 177 56 0zm373 162c-22,0 -41,-5 -58,-14 -17,-8 -30,-21 -39,-36 -10,-16 -14,-34 -14,-54l0 -15 66 -7 0 16c0,15 4,27 11,36 8,9 19,13 33,13 13,0 24,-3 32,-11 8,-7 12,-17 12,-29 0,-14 -4,-27 -13,-40 -8,-12 -25,-29 -50,-52 -34,-29 -57,-54 -69,-74 -12,-20 -18,-41 -18,-65 0,-31 9,-57 27,-75 19,-19 45,-29 77,-29 32,0 58,10 77,29 18,19 27,44 27,76l0 11 -66 7 0 -13c0,-16 -3,-28 -9,-36 -7,-9 -16,-13 -28,-13 -12,0 -22,3 -28,10 -7,7 -10,17 -10,30 0,14 4,26 13,39 9,12 25,30 50,53 34,31 57,56 69,76 12,19 19,40 19,63 0,20 -5,38 -14,54 -10,15 -23,28 -40,36 -17,9 -36,14 -57,14zm169 -430l195 0 0 61 -126 0 0 118 100 0 0 60 -100 0 0 124 126 0 0 61 -195 0 0 -424zm280 430c-15,0 -30,-2 -44,-6l9 -58c8,2 17,3 27,3 16,0 28,-4 35,-12 8,-8 11,-21 11,-39l0 -318 69 0 0 329c0,31 -9,55 -29,73 -19,19 -45,28 -78,28zm313 -100l-74 0 -15 94 -69 0 76 -424 92 0 75 424 -70 0 -15 -94zm-9 -62l-28 -177 -28 177 56 0zm147 156l0 -424 69 0 0 179 82 0 0 -179 68 0 0 424 -68 0 0 -185 -82 0 0 185 -69 0zm273 -424l219 0 0 61 -75 0 0 363 -69 0 0 -363 -75 0 0 -61zm272 0l195 0 0 61 -126 0 0 118 100 0 0 60 -100 0 0 124 126 0 0 61 -195 0 0 -424zm408 424l-50 -175 -36 0 0 175 -69 0 0 -424 108 0c33,0 59,10 78,28 20,18 30,43 30,73l0 47c0,19 -5,36 -13,51 -8,15 -20,27 -35,35l58 190 -71 0zm-86 -236l36 0c13,0 23,-3 31,-10 7,-7 11,-16 11,-29l0 -49c0,-12 -4,-22 -11,-29 -8,-7 -18,-10 -31,-10l-36 0 0 127zm349 142l-74 0 -15 94 -69 0 76 -424 92 0 75 424 -70 0 -15 -94zm-9 -62l-28 -177 -28 177 56 0z"/>
    <path class="fil35" d="M8816 2898l-29 -100 -20 0 0 100 -39 0 0 -242 61 0c19,0 34,6 45,16 11,11 17,25 17,42l0 27c0,11 -3,20 -7,29 -5,8 -12,15 -20,20l32 108 -40 0zm-49 -134l20 0c8,0 14,-2 18,-6 4,-4 6,-10 6,-17l0 -28c0,-7 -2,-12 -6,-16 -4,-4 -10,-6 -18,-6l-20 0 0 73zm122 -108l111 0 0 35 -72 0 0 67 57 0 0 35 -57 0 0 70 72 0 0 35 -111 0 0 -242zm225 188l-42 0 -9 54 -39 0 43 -242 53 0 43 242 -40 0 -9 -54zm-5 -35l-16 -101 -16 101 32 0zm84 -153l39 0 0 207 70 0 0 35 -109 0 0 -242zm213 0l112 0 0 35 -72 0 0 67 57 0 0 35 -57 0 0 70 72 0 0 35 -112 0 0 -242zm199 245c-12,0 -23,-2 -33,-7 -9,-5 -17,-12 -22,-21 -5,-9 -8,-20 -8,-31l0 -9 38 -4 0 9c0,9 2,16 6,21 5,5 11,8 19,8 8,0 14,-2 18,-6 5,-5 7,-10 7,-17 0,-8 -2,-16 -7,-23 -5,-7 -15,-17 -29,-29 -19,-17 -32,-32 -39,-43 -7,-11 -11,-23 -11,-37 0,-18 5,-32 16,-43 11,-11 25,-16 44,-16 18,0 33,5 43,16 11,11 16,25 16,44l0 6 -37 4 0 -7c0,-10 -2,-17 -6,-21 -4,-5 -9,-8 -16,-8 -7,0 -12,2 -16,6 -3,4 -5,10 -5,18 0,7 2,14 7,21 5,7 15,17 29,31 19,18 32,32 39,43 7,11 11,23 11,36 0,11 -3,22 -8,31 -6,9 -13,16 -23,21 -9,5 -20,7 -33,7zm83 -245l125 0 0 35 -43 0 0 207 -39 0 0 -207 -43 0 0 -35zm217 188l-42 0 -8 54 -40 0 43 -242 53 0 43 242 -40 0 -9 -54zm-5 -35l-16 -101 -16 101 32 0zm56 -153l125 0 0 35 -43 0 0 207 -39 0 0 -207 -43 0 0 -35zm156 0l111 0 0 35 -72 0 0 67 57 0 0 35 -57 0 0 70 72 0 0 35 -111 0 0 -242zm161 242l-14 0 0 -36 39 0 0 32 -21 40 -18 0 14 -36zm144 -242l62 0c18,0 33,6 45,16 11,11 16,25 16,42l0 126c0,18 -5,32 -16,42 -12,11 -27,16 -45,16l-62 0 0 -242zm60 207c8,0 13,-2 18,-6 4,-3 6,-9 6,-16l0 -128c0,-7 -2,-12 -6,-16 -5,-4 -10,-6 -18,-6l-20 0 0 172 20 0zm102 -207l112 0 0 35 -72 0 0 67 57 0 0 35 -57 0 0 70 72 0 0 35 -112 0 0 -242zm274 0l-43 242 -52 0 -43 -242 40 0 29 190 30 -190 39 0zm31 0l111 0 0 35 -72 0 0 67 57 0 0 35 -57 0 0 70 72 0 0 35 -111 0 0 -242zm144 0l39 0 0 207 70 0 0 35 -109 0 0 -242zm199 245c-19,0 -34,-5 -45,-16 -12,-11 -18,-25 -18,-42l0 -132c0,-17 6,-31 18,-42 11,-11 26,-16 45,-16 19,0 34,5 46,16 11,11 17,25 17,42l0 132c0,17 -6,31 -17,42 -12,11 -27,16 -46,16zm0 -34c8,0 13,-2 17,-6 5,-5 7,-10 7,-18l0 -132c0,-7 -2,-13 -7,-17 -4,-5 -9,-7 -17,-7 -7,0 -13,2 -17,7 -4,4 -7,10 -7,17l0 132c0,8 3,13 7,18 4,4 10,6 17,6zm103 -211l61 0c19,0 34,6 45,16 11,11 16,25 16,42l0 28c0,18 -5,32 -16,42 -11,11 -26,16 -45,16l-22 0 0 98 -39 0 0 -242zm59 109c8,0 14,-2 18,-6 4,-3 6,-9 6,-16l0 -30c0,-7 -2,-12 -6,-16 -4,-4 -10,-6 -18,-6l-20 0 0 74 20 0zm96 -109l112 0 0 35 -72 0 0 67 57 0 0 35 -57 0 0 70 72 0 0 35 -112 0 0 -242zm233 242l-29 -100 -20 0 0 100 -39 0 0 -242 61 0c19,0 34,6 45,16 11,11 17,25 17,42l0 27c0,11 -3,20 -7,29 -5,8 -12,15 -20,20l33 108 -41 0zm-49 -134l20 0c8,0 14,-2 18,-6 4,-4 6,-10 6,-17l0 -28c0,-7 -2,-12 -6,-16 -4,-4 -10,-6 -18,-6l-20 0 0 73zm138 134l-14 0 0 -36 40 0 0 32 -21 40 -19 0 14 -36zm199 -100l-15 27 0 73 -39 0 0 -242 39 0 0 98 52 -98 42 0 -55 103 59 139 -42 0 -41 -100zm167 103c-18,0 -33,-5 -45,-16 -12,-11 -17,-25 -17,-42l0 -132c0,-17 5,-31 17,-42 12,-11 27,-16 45,-16 19,0 34,5 46,16 12,11 17,25 17,42l0 132c0,17 -5,31 -17,42 -12,11 -27,16 -46,16zm0 -34c8,0 14,-2 18,-6 4,-5 6,-10 6,-18l0 -132c0,-7 -2,-13 -6,-17 -4,-5 -10,-7 -18,-7 -7,0 -13,2 -17,7 -4,4 -6,10 -6,17l0 132c0,8 2,13 6,18 4,4 10,6 17,6zm103 -211l43 0 50 162 0 -162 39 0 0 242 -42 0 -52 -155 0 155 -38 0 0 -242zm162 0l125 0 0 35 -43 0 0 207 -39 0 0 -207 -43 0 0 -35zm244 242l-29 -100 -20 0 0 100 -39 0 0 -242 61 0c19,0 34,6 45,16 11,11 16,25 16,42l0 27c0,11 -2,20 -7,29 -4,8 -11,15 -20,20l33 108 -40 0zm-49 -134l20 0c8,0 14,-2 18,-6 4,-4 6,-10 6,-17l0 -28c0,-7 -2,-12 -6,-16 -4,-4 -10,-6 -18,-6l-20 0 0 73zm199 80l-42 0 -9 54 -39 0 43 -242 52 0 43 242 -40 0 -8 -54zm-5 -35l-16 -101 -16 101 32 0zm138 -11l-15 27 0 73 -39 0 0 -242 39 0 0 98 52 -98 42 0 -55 103 59 139 -42 0 -41 -100zm99 -142l125 0 0 35 -43 0 0 207 -39 0 0 -207 -43 0 0 -35zm215 245c-19,0 -34,-5 -46,-16 -11,-11 -17,-25 -17,-42l0 -132c0,-17 6,-31 17,-42 12,-11 27,-16 46,-16 19,0 34,5 46,16 11,11 17,25 17,42l0 132c0,17 -6,31 -17,42 -12,11 -27,16 -46,16zm0 -34c7,0 13,-2 17,-6 5,-5 7,-10 7,-18l0 -132c0,-7 -2,-13 -7,-17 -4,-5 -10,-7 -17,-7 -7,0 -13,2 -17,7 -5,4 -7,10 -7,17l0 132c0,8 2,13 7,18 4,4 10,6 17,6zm191 31l-29 -100 -20 0 0 100 -39 0 0 -242 61 0c19,0 34,6 45,16 11,11 16,25 16,42l0 27c0,11 -2,20 -7,29 -4,8 -11,15 -20,20l33 108 -40 0zm-49 -134l20 0c8,0 14,-2 18,-6 4,-4 6,-10 6,-17l0 -28c0,-7 -2,-12 -6,-16 -4,-4 -10,-6 -18,-6l-20 0 0 73zm138 134l-14 0 0 -36 39 0 0 32 -20 40 -19 0 14 -36zm145 -242l61 0c19,0 34,6 45,16 11,11 17,25 17,42l0 28c0,18 -6,32 -17,42 -11,11 -26,16 -45,16l-22 0 0 98 -39 0 0 -242zm59 109c8,0 14,-2 18,-6 4,-3 7,-9 7,-16l0 -30c0,-7 -3,-12 -7,-16 -4,-4 -10,-6 -18,-6l-20 0 0 74 20 0zm97 -109l111 0 0 35 -72 0 0 67 57 0 0 35 -57 0 0 70 72 0 0 35 -111 0 0 -242zm232 242l-28 -100 -21 0 0 100 -39 0 0 -242 61 0c19,0 34,6 45,16 11,11 17,25 17,42l0 27c0,11 -2,20 -7,29 -5,8 -11,15 -20,20l33 108 -41 0zm-49 -134l21 0c7,0 13,-2 17,-6 5,-4 7,-10 7,-17l0 -28c0,-7 -2,-12 -7,-16 -4,-4 -10,-6 -17,-6l-21 0 0 73zm122 -108l61 0c19,0 34,6 45,16 11,11 17,25 17,42l0 126c0,18 -6,32 -17,42 -11,11 -26,16 -45,16l-61 0 0 -242zm60 207c7,0 13,-2 17,-6 5,-3 7,-9 7,-16l0 -128c0,-7 -2,-12 -7,-16 -4,-4 -10,-6 -17,-6l-21 0 0 172 21 0zm179 -19l-42 0 -9 54 -39 0 43 -242 53 0 43 242 -40 0 -9 -54zm-5 -35l-16 -101 -16 101 32 0zm167 -77l0 -21c0,-7 -2,-13 -6,-17 -5,-5 -10,-7 -18,-7 -7,0 -13,2 -17,7 -4,4 -6,10 -6,17l0 132c0,8 2,13 6,18 4,4 10,6 17,6 8,0 13,-2 18,-6 4,-5 6,-10 6,-18l0 -43 -24 0 0 -34 63 0 0 77c0,17 -6,31 -17,42 -12,11 -27,16 -46,16 -19,0 -34,-5 -45,-16 -12,-11 -18,-25 -18,-42l0 -132c0,-17 6,-31 18,-42 11,-11 26,-16 45,-16 19,0 34,5 46,16 11,11 17,25 17,42l0 21 -39 0zm154 112l-42 0 -8 54 -40 0 43 -242 53 0 43 242 -40 0 -9 -54zm-5 -35l-16 -101 -16 101 32 0zm84 -153l43 0 50 162 0 -162 39 0 0 242 -42 0 -51 -155 0 155 -39 0 0 -242zm258 76l0 -21c0,-7 -2,-13 -6,-17 -4,-5 -10,-7 -18,-7 -7,0 -13,2 -17,7 -4,4 -6,10 -6,17l0 132c0,8 2,13 6,18 4,4 10,6 17,6 8,0 14,-2 18,-6 4,-5 6,-10 6,-18l0 -43 -24 0 0 -34 63 0 0 77c0,17 -6,31 -17,42 -12,11 -27,16 -46,16 -18,0 -34,-5 -45,-16 -12,-11 -18,-25 -18,-42l0 -132c0,-17 6,-31 18,-42 11,-11 27,-16 45,-16 19,0 34,5 46,16 11,11 17,25 17,42l0 21 -39 0zm154 112l-42 0 -8 54 -40 0 43 -242 53 0 43 242 -40 0 -9 -54zm-5 -35l-16 -101 -16 101 32 0zm84 -153l43 0 50 162 0 -162 39 0 0 242 -42 0 -51 -155 0 155 -39 0 0 -242z"/>
    <polygon class="fil36" points="7691,1849 8132,2108 8573,2367 8346,2367 8132,2242 7691,1983 7249,2242 7035,2367 6808,2367 7249,2108 "/>
    <path class="fil37" d="M7691 2092c53,0 97,40 97,90 0,50 -44,91 -97,91 -54,0 -97,-41 -97,-91 0,-50 43,-90 97,-90z"/>
    <polygon class="fil37" points="7691,1701 8006,1886 8321,2071 8159,2071 8006,1982 7691,1797 7375,1982 7223,2071 7060,2071 7375,1886 "/>
    <path class="fil34" d="M8230 2736c0,-27 -5,-53 -16,-77 -12,-24 -27,-45 -46,-63 -19,-18 -41,-33 -67,-43 -26,-11 -53,-16 -83,-16l-2 0 0 -128c1,0 2,0 3,0 1,0 2,1 3,1l0 -132 -16 0c-29,0 -56,5 -81,15 -25,11 -47,25 -66,42 -18,17 -33,38 -44,61 -11,24 -17,49 -17,76 0,27 6,52 17,76 11,23 26,44 44,62 19,17 41,32 66,42 25,11 52,16 81,16l3 0 0 126c-1,0 -4,0 -7,0l0 139c3,0 5,0 8,1 3,0 5,0 8,0 30,0 57,-5 83,-16 26,-10 48,-24 67,-42 19,-18 34,-39 46,-63 11,-24 16,-49 16,-77zm-220 -200c-4,0 -9,0 -13,-1l0 -125c4,-1 9,-1 13,-1l0 127zm-20 -4c-3,-1 -5,-2 -7,-3 -2,0 -4,-1 -6,-2l0 -108c2,-2 4,-3 6,-4 2,-1 4,-2 7,-3l0 120zm-19 -10c-5,-3 -9,-7 -13,-13l0 -74c4,-5 8,-10 13,-12l0 99zm-20 -24c-4,-10 -6,-19 -6,-26 0,-5 0,-10 1,-14 2,-4 3,-9 5,-13l0 53zm128 233c0,10 -2,19 -5,26l0 -51c3,8 5,16 5,25zm-11 36c-3,3 -5,5 -7,7 -2,2 -4,5 -6,7l0 -100c2,3 4,5 6,7 2,2 4,5 7,7l0 72zm-20 18c-3,1 -5,2 -7,3 -2,0 -4,1 -6,2l0 -119c2,1 4,2 6,3 2,1 4,2 7,3l0 108zm-19 7c-3,1 -5,2 -7,2 -2,0 -4,0 -6,0l0 -127c4,0 8,1 13,2l0 123z"/>
    <path class="fil34" d="M7772 2608c0,-45 -9,-87 -27,-126 -19,-39 -43,-73 -75,-102 -31,-29 -68,-52 -110,-69 -42,-17 -87,-26 -135,-26l0 0 -122 0 0 139 0 369 0 137 122 0c48,0 93,-9 135,-25 42,-17 79,-40 110,-69 32,-29 56,-63 75,-103 18,-39 27,-81 27,-125zm-160 0c0,23 -3,44 -11,63l0 -127c8,20 11,41 11,64zm-18 78c-3,8 -7,15 -13,22l0 -201c6,8 10,15 13,23l0 156zm-19 31c-2,3 -4,5 -6,8 -2,2 -4,5 -7,7l0 -249c3,3 5,5 7,8 2,2 4,5 6,7l0 219zm-20 22c-4,5 -8,8 -13,11l0 -285c3,2 6,4 8,6 2,2 4,3 5,6l0 262zm-19 16c-2,2 -4,3 -6,5 -2,1 -4,3 -7,4l0 -312c3,1 5,3 7,4 2,1 4,3 6,4l0 295zm-20 13c-2,1 -4,2 -6,3 -2,1 -4,2 -7,3l0 -332c3,1 5,2 7,3 2,1 4,2 6,3l0 320zm-19 9c-2,1 -4,2 -6,2 -2,1 -4,2 -7,3l0 -348 13 5 0 338zm-20 7c-2,1 -7,2 -13,3l0 -359c3,1 5,1 7,2 2,0 4,1 6,1l0 353zm-19 5c-5,1 -10,1 -13,1l0 -365 13 2 0 362zm-20 3c-2,1 -7,1 -13,1l0 -369 0 -2c3,0 5,0 7,0 2,0 4,1 6,1l0 2 0 367zm-19 1l-13 0 0 -369 13 0 0 369zm-19 0l-13 0 0 -369 13 0 0 369zm-20 0l-13 0 0 -369 13 0 0 369zm-19 0l-13 0 0 -369 13 0 0 369zm-20 0l-13 0 0 -369 13 0 0 369zm-19 0l-13 0 0 -369 13 0 0 369z"/>
    <polygon class="fil37" points="7422,2418 7439,2418 7439,2425 7425,2424 "/>
   </g>
  </g>
 </g>
</svg>
